<svg xmlns="http://www.w3.org/2000/svg" version="1.1" xmlns:xlink="http://www.w3.org/1999/xlink" xmlns:svgjs="http://svgjs.com/svgjs" width="240" height="240"><svg width="240" height="240" viewBox="0 0 240 240" fill="none" xmlns="http://www.w3.org/2000/svg">
<rect width="240" height="240" fill="#506C46"></rect>
<path d="M114.114 101.236C115.196 101.236 116.157 100.755 117.058 100.214C118.32 99.8538 119.522 100.395 120.784 100.455C121.084 100.154 121.445 100.214 121.805 100.335C122.947 100.815 124.209 100.935 125.411 101.296C127.033 102.077 128.655 102.798 130.218 103.76C130.638 104 131.179 104.24 131.239 104.841C132.861 106.223 133.643 108.206 134.844 109.949C134.904 110.069 135.025 110.189 135.085 110.309C135.325 110.67 135.565 111.09 135.565 111.571C135.565 111.751 135.625 111.871 135.686 112.052C136.467 112.773 136.767 113.734 137.248 114.635C137.729 115.056 137.608 115.777 137.969 116.198C137.668 118 138.209 119.803 138.329 121.606C138.39 122.447 138.329 123.348 138.69 124.189C138.329 125.391 138.029 126.653 138.029 127.915C138.39 128.576 137.909 129.117 137.789 129.718C137.488 130.078 137.548 130.499 137.548 130.919C137.428 132.662 136.527 133.984 135.325 135.186C134.183 136.628 133.042 138.01 131.66 139.211C131.299 139.332 131.239 139.632 131.119 139.932C130.758 141.074 130.278 142.216 128.956 142.576C128.775 142.636 128.715 142.877 128.595 142.997C127.814 143.778 127.093 144.619 125.951 144.8C125.651 144.74 125.35 144.86 125.11 145.04C124.449 145.16 123.788 145.401 123.127 145.521C122.586 145.641 122.046 145.761 121.685 145.16C121.745 144.499 122.346 144.499 122.767 144.379C125.05 143.898 126.672 142.276 128.295 140.834C128.775 140.413 129.076 139.872 129.256 139.272C129.617 138.25 130.157 137.349 130.638 136.447C131.179 135.366 131.72 134.284 131.84 133.022C132.02 131.7 132.801 130.619 133.282 129.357C133.402 129.057 133.643 128.696 133.462 128.275C133.102 128.396 133.102 128.756 132.922 128.996C132.621 129.477 132.441 130.018 131.66 129.718C131.179 129.537 131.179 130.018 131.179 130.258C131.119 132.602 129.677 134.164 128.054 135.606C127.814 135.847 127.514 136.027 127.213 136.087C124.93 136.387 122.947 137.589 120.904 138.55C119.342 139.272 117.839 139.452 116.157 138.971C114.294 138.43 112.371 138.31 110.689 137.229C110.208 136.928 109.728 136.628 109.728 135.967C109.728 134.224 108.706 133.022 107.624 131.881C106.963 131.16 106.723 130.318 106.663 129.357C106.663 129.117 106.603 128.876 106.903 128.756C107.144 128.636 107.324 128.816 107.504 128.996L107.504 128.996C108.225 129.838 109.067 130.559 109.968 131.28C110.208 131.46 110.449 131.64 110.749 131.64C112.732 131.881 114.655 132.361 116.578 132.722L116.578 132.722C117.419 132.902 118.26 133.082 119.101 133.082L119.101 133.082C119.402 133.082 119.762 133.082 119.822 133.443C119.882 133.743 119.522 133.864 119.282 133.924C118.2 134.404 117.058 134.945 115.917 135.246C115.256 135.426 114.715 135.726 114.114 136.207C118.2 135.306 121.925 133.683 125.651 131.941C125.29 131.64 124.99 131.821 124.629 131.881C123.668 132.001 122.767 132.121 121.805 132.181C121.385 132.181 120.784 132.181 121.204 131.46C118.44 131.52 115.616 131.761 112.792 131.22C112.371 131.16 111.951 131.039 111.53 131.22C110.689 131.58 110.088 131.16 109.547 130.619C108.285 129.357 107.324 127.915 106.783 126.112C106.603 125.451 106.663 124.73 106.783 124.069C107.204 121.185 108.406 118.601 109.788 116.138C109.807 116.099 109.827 116.062 109.849 116.026C108.713 117.562 107.862 119.266 107.204 121.065C106.843 121.966 106.062 122.086 105.341 122.387C104.981 122.567 104.8 122.207 104.68 121.906C104.26 121.005 103.959 120.103 104.199 119.082C104.74 116.618 105.221 114.095 107.024 112.172C107.192 111.975 107.244 111.829 107.306 111.705C105.95 112.893 105.086 113.863 104.38 115.657C103.659 117.46 103.719 119.443 102.757 121.185C102.697 121.305 102.697 121.425 102.757 121.546C103.298 123.769 102.998 126.112 103.839 128.336C103.959 128.696 104.079 129.177 103.659 129.417C103.238 129.657 102.938 129.237 102.637 128.996C101.976 128.516 101.556 127.855 101.495 127.134C101.435 126.293 101.075 125.632 100.654 124.971C100.174 124.189 99.9332 123.348 100.354 122.447C100.474 122.146 100.474 121.786 100.354 121.485C100.174 120.704 100.474 119.983 100.834 119.322C101.075 118.902 101.195 118.902 101.676 119.322C101.435 118.541 101.676 117.82 101.976 117.039C102.697 114.996 104.079 113.314 105.161 111.571C105.702 110.67 106.483 109.949 107.204 109.167C107.685 108.627 108.285 108.807 108.826 108.987C107.925 108.567 107.925 108.506 108.285 107.605C108.646 106.584 109.367 105.923 110.388 105.562C111.17 105.262 112.011 104.961 112.792 104.721C113.092 104.601 113.393 104.541 113.633 104.781C113.874 105.081 113.573 105.322 113.513 105.502C114.054 104.841 114.294 105.202 114.174 106.524V106.764C114.595 105.983 114.895 105.081 115.676 104.601C116.217 104.24 116.818 103.88 117.479 104C117.599 104 117.719 104.06 117.779 104C119.282 103.038 120.724 103.82 122.166 104.24C123.668 104.721 124.629 105.863 125.471 107.185C126.913 109.468 128.054 111.871 129.196 114.335C129.376 114.035 129.196 113.734 129.196 113.434C129.196 113.133 129.076 112.773 129.016 112.472L129.016 112.472C128.956 112.232 128.896 111.992 129.076 111.811C129.376 111.631 129.557 111.871 129.737 112.052C130.037 112.352 130.398 112.653 130.518 113.133C130.694 113.697 131.077 114.158 131.4 114.648C130.925 113.741 130.484 112.804 129.917 111.931C129.376 111.15 128.836 110.369 128.415 109.528C127.934 108.687 127.994 108.506 128.956 108.386C128.235 106.824 126.732 106.043 125.471 105.081C125.05 104.781 124.569 104.541 124.209 104.18C123.728 103.759 123.103 104.283 122.503 104.043C120.339 103.322 118.034 102.927 115.811 102.927C114.88 102.927 114.612 101.905 114.105 101.24C113.991 101.299 113.937 101.351 114.054 101.176C114.071 101.197 114.088 101.218 114.105 101.24C114.108 101.239 114.111 101.237 114.114 101.236Z" fill="#E7D000"></path>
<path d="M99.8724 136.989C99.3316 137.05 99.3316 136.449 99.0312 136.208C98.5505 135.067 97.7092 134.045 97.6492 132.723C97.5891 131.642 96.8079 130.981 96.5075 130.079C96.2071 129.178 95.8465 128.337 95.5461 127.496C95.7263 127.375 95.8465 127.255 95.7864 127.015C95.1255 125.573 95.0654 124.01 95.1255 122.448C94.8851 121.006 95.5461 119.744 95.6663 118.362C95.6663 118.242 95.6662 118.062 95.7263 117.942C96.3873 116.139 97.7693 114.697 98.4303 112.894C98.5505 112.474 98.911 112.173 99.2715 111.993C99.3917 111.933 99.4518 111.933 99.572 111.993C100.473 113.795 99.8724 115.418 99.0913 117.1C98.25 118.903 97.3487 120.646 97.2886 122.749C97.2286 124.01 97.3487 125.272 97.8294 126.414C98.3101 127.676 98.3101 129.058 99.0913 130.2C99.1514 130.32 99.2114 130.44 99.1514 130.56C98.7307 131.762 99.3917 132.783 99.8123 133.805C100.233 134.826 100.473 135.848 100.413 136.929C100.233 137.05 100.113 137.23 99.8724 136.989Z" fill="#E7D000"></path>
<path d="M99.2723 111.451C99.2723 110.249 100.294 109.348 100.354 108.146C101.556 106.944 102.817 105.802 104.019 104.601C104.5 104.601 104.86 104.42 105.281 104.12C107.144 102.798 109.247 102.137 111.35 101.416C111.41 101.416 111.53 101.476 111.65 101.536C111.53 102.077 111.05 102.197 110.629 102.377C108.766 103.098 107.144 104.18 105.642 105.622C104.5 106.704 102.938 107.245 101.856 108.446C101.255 109.107 100.354 109.528 100.774 110.79C100.955 111.451 100.234 111.03 99.8732 110.97C99.9332 111.391 99.8731 111.751 99.4525 111.991C99.3924 111.991 99.3924 111.991 99.3323 111.991C99.1521 111.871 99.1521 111.751 99.2122 111.571C99.3324 111.511 99.3324 111.511 99.2723 111.451Z" fill="#E7D000"></path>
<path d="M106.424 142.637C105.582 142.577 104.921 142.096 104.2 141.796C103.96 141.435 103.479 141.435 103.119 141.195C102.758 140.834 102.338 140.474 101.977 140.053C101.677 139.873 101.436 139.632 101.196 139.392C101.076 139.152 100.956 138.971 100.895 138.731C100.895 138.311 100.475 138.19 100.295 137.89C100.234 137.83 100.234 137.71 100.174 137.65C100.174 137.589 100.234 137.589 100.234 137.529C100.415 137.349 100.655 137.289 100.956 137.409C102.157 139.332 104.441 139.813 106.003 141.195C106.363 141.495 106.844 141.615 107.024 142.096C107.024 142.457 106.844 142.697 106.424 142.637Z" fill="#E7D000"></path>
<path d="M106.964 142.096C106.062 141.555 105.041 141.134 104.32 140.293C103.839 139.752 103.118 139.933 102.577 139.572C101.796 139.031 101.315 138.25 100.774 137.469C100.714 137.229 100.414 137.289 100.354 137.109C100.294 136.988 100.354 136.868 100.294 136.748C99.9933 135.126 99.3925 133.623 98.7916 132.061C98.6113 131.641 98.2508 131.1 98.8517 130.619C98.9718 130.499 98.9718 130.379 98.8517 130.198C97.4095 127.134 96.5683 123.949 97.2293 120.524C97.2894 120.164 97.5898 119.923 97.71 119.563C98.3109 117.94 98.9118 116.318 99.8131 114.876C99.9934 114.576 99.8732 114.275 99.8131 114.035C99.6929 113.374 99.5126 112.653 99.5126 111.992C99.753 111.451 99.5126 110.429 100.654 110.97C100.053 110.069 100.414 109.168 101.556 108.266C103.599 106.644 105.762 105.142 107.805 103.459C108.886 102.558 110.389 102.257 111.65 101.536C112.432 101.116 113.213 101.116 113.994 101.296C114.475 101.717 115.136 101.957 115.316 102.678C115.376 102.918 115.616 102.858 115.796 102.858C116.998 102.738 118.2 102.738 119.402 102.798C120.063 102.798 120.664 102.858 121.325 103.159C121.745 103.339 122.226 103.579 122.767 103.399C123.187 103.279 123.488 103.519 123.788 103.7C125.17 104.721 126.612 105.743 127.994 106.704C128.595 107.125 128.896 107.846 129.376 108.447C129.497 108.627 129.557 108.867 129.316 109.108C128.896 109.528 128.655 108.867 128.115 108.747C128.655 109.708 129.196 110.429 129.617 111.211C130.158 112.232 130.999 113.013 131.239 114.215C131.299 114.576 131.84 115.297 132.321 115.717C132.501 115.897 132.741 116.078 132.681 116.378C132.681 116.498 132.501 116.619 132.381 116.619C132.02 116.679 132.02 116.318 131.9 116.138C130.999 114.756 130.398 113.254 129.196 112.052C129.497 112.773 129.497 113.494 129.617 114.215C129.677 114.576 129.737 114.936 129.316 115.056C128.896 115.176 128.836 114.756 128.775 114.515C127.874 111.872 126.492 109.468 124.99 107.125C123.908 105.442 122.346 104.361 120.243 104.12C119.822 104.06 119.402 104.12 118.981 103.88C118.921 103.82 118.741 103.76 118.741 103.82C118.02 104.901 116.638 104.06 115.796 104.841C114.955 105.622 114.475 106.584 114.234 107.846C113.453 107.125 113.994 106.283 113.934 105.442C113.633 105.682 113.393 105.923 113.153 106.163C113.093 105.863 113.333 105.743 113.393 105.502C113.453 105.382 113.573 105.202 113.453 105.082C113.333 104.901 113.153 104.961 112.972 105.022C112.191 105.502 111.29 105.622 110.449 105.983C109.667 106.404 109.007 106.704 108.586 107.665C108.285 108.386 108.285 108.747 108.946 109.108C106.903 109.168 106.182 110.85 105.281 112.232C104.62 113.254 103.719 114.095 103.238 115.297C102.517 116.919 101.435 118.421 102.096 120.464C101.435 120.224 101.736 119.623 101.255 119.322C100.895 120.164 100.294 121.005 100.835 122.026C101.135 122.627 100.414 122.868 100.474 123.469C100.594 124.37 100.895 125.091 101.435 125.692C101.676 125.992 101.916 126.172 101.736 126.713C101.556 127.374 102.036 127.975 102.337 128.516C102.637 128.937 103.118 129.177 103.539 129.537C103.779 129.117 103.659 128.696 103.478 128.396C102.817 126.653 102.697 124.851 102.697 122.988C102.697 122.207 102.217 121.666 102.697 120.644C103.418 119.202 103.719 117.46 103.959 115.777C104.32 113.554 107.144 110.97 109.307 111.151C107.144 112.112 106.002 113.915 105.341 116.078C104.68 118.181 103.839 120.284 105.161 122.447C105.341 122.447 105.341 122.207 105.401 122.207C107.144 121.966 107.204 120.344 107.745 119.202C108.646 117.4 109.728 115.777 111.05 114.335C111.23 114.155 111.35 113.915 111.53 113.734C111.951 113.975 112.191 114.275 111.711 114.696C109.728 116.378 108.886 118.782 107.925 121.065C107.324 122.507 106.903 124.19 107.024 125.812C107.084 127.014 107.865 128.035 108.526 129.057C109.067 129.838 109.728 130.559 110.509 131.16C110.809 131.4 110.929 131.22 111.11 131.16C111.711 130.98 112.251 130.919 112.852 131.04C115.676 131.641 118.561 131.34 121.445 131.28C121.685 131.28 121.986 131.22 122.286 131.4C122.106 131.761 121.505 131.52 121.385 132.121C122.526 132.001 123.668 131.881 124.81 131.701C125.35 131.641 126.132 131.34 126.312 131.881C126.552 132.602 125.591 132.782 125.17 132.782C123.187 132.962 121.865 134.585 119.943 134.945C118.08 135.306 116.277 136.087 114.414 136.688C114.174 136.748 113.874 136.988 113.693 136.688C113.513 136.387 113.814 136.147 114.054 135.967C114.775 135.546 115.496 135.186 116.337 134.945C117.539 134.585 118.621 134.044 119.822 133.503C117.659 133.443 115.616 132.722 113.453 132.422C112.552 132.301 111.771 131.821 110.809 131.941C110.148 132.061 109.607 131.4 109.187 130.98C108.526 130.258 107.564 129.838 107.144 128.876C107.204 129.958 107.264 130.919 108.165 131.821C109.247 132.902 110.328 134.164 110.148 135.907C110.088 136.207 110.208 136.508 110.509 136.688C111.47 137.169 112.371 137.89 113.393 138.07C114.294 138.19 115.196 138.43 116.037 138.551C116.758 138.671 117.479 138.851 118.2 139.031C118.621 139.091 118.981 139.091 119.342 138.911C121.385 138.01 123.488 137.109 125.531 136.207C125.651 136.147 125.831 136.027 126.011 136.027C128.054 136.027 129.016 134.405 130.097 133.083C130.818 132.181 130.939 131.16 131.059 130.078C131.119 129.057 131.239 129.057 132.08 129.537C132.321 129.718 132.441 129.537 132.561 129.357C132.741 129.057 132.922 128.756 132.982 128.396C133.102 127.975 133.342 127.555 133.763 127.675C134.244 127.795 134.063 128.396 134.003 128.696C133.883 129.297 133.643 129.898 133.282 130.379C132.801 131.16 132.441 131.941 132.321 132.842C132.02 135.066 130.638 136.868 129.917 138.851C129.316 140.473 128.115 141.435 126.853 142.516C125.471 143.718 123.908 144.439 122.166 144.8C122.046 144.8 121.925 144.98 121.805 145.1C121.805 145.16 121.745 145.22 121.745 145.22C121.685 145.281 121.565 145.341 121.445 145.28C120.243 145.461 118.981 145.04 117.779 145.341C117.539 145.28 117.299 145.1 117.058 145.28C116.217 145.16 115.376 145.1 114.475 145.1C113.693 145.1 113.032 144.62 112.251 144.439C111.59 144.079 110.929 143.838 110.208 143.778C110.148 143.778 110.088 143.778 110.088 143.718C109.307 143.418 108.406 143.237 107.625 142.937C106.783 142.877 106.783 142.577 106.964 142.096Z" fill="#E7D000"></path>
<path fill-rule="evenodd" clip-rule="evenodd" d="M135.025 44.9922C135.055 44.9622 135.07 44.9321 135.085 44.9021C135.1 44.872 135.115 44.842 135.145 44.8119C135.445 44.5716 135.566 44.2261 135.686 43.8806C135.806 43.5351 135.926 43.1896 136.226 42.9492C136.737 42.3183 136.993 41.5672 137.248 40.8161C137.503 40.065 137.759 39.3139 138.269 38.683C138.855 38.0139 139.285 37.2414 139.716 36.4674C140.214 35.5731 140.713 34.6769 141.454 33.936C143.437 32.0132 145.6 30.0904 148.484 29.9702C148.918 29.9501 149.357 29.9164 149.798 29.8825C151.986 29.7144 154.236 29.5415 156.236 30.9917C156.573 31.2445 156.999 31.4087 157.409 31.5671C157.584 31.6346 157.757 31.701 157.918 31.7729C160.382 32.9746 161.884 34.9575 163.206 37.3009C164.348 39.2839 164.648 41.3269 164.949 43.49C165.037 44.0844 165.149 44.6787 165.262 45.276C165.457 46.3092 165.654 47.3511 165.73 48.4172C165.767 49.0932 165.687 49.7692 165.608 50.4453C165.56 50.8508 165.512 51.2564 165.489 51.662C165.472 52.0087 165.425 52.3504 165.378 52.69C165.262 53.5275 165.147 54.3521 165.489 55.2072C165.718 55.7786 165.608 56.3258 165.498 56.8795C165.434 57.1992 165.369 57.5211 165.369 57.8511C165.429 59.9541 164.949 61.9971 164.348 63.98C164.186 64.5463 163.976 65.1005 163.766 65.6534C163.508 66.3326 163.251 67.0099 163.086 67.7055C163.032 67.9466 162.982 68.1908 162.931 68.4365C162.753 69.2932 162.571 70.1699 162.245 71.0103C162.157 71.2379 162.068 71.4664 161.98 71.6954C161.346 73.3411 160.7 75.0161 159.961 76.5985C158.759 79.2424 157.498 81.9464 155.935 84.41C155.684 84.8207 155.399 85.2141 155.111 85.61C154.642 86.2564 154.168 86.9093 153.832 87.6547C153.453 88.551 152.955 89.3879 152.452 90.2336L152.452 90.2336C152.078 90.862 151.702 91.4953 151.369 92.1613C150.527 93.9038 149.506 95.5863 148.004 96.9083C147.707 97.163 147.469 97.5077 147.229 97.8576C147.129 98.003 147.028 98.1492 146.922 98.2903C146.61 98.7107 146.305 99.1384 146 99.5661L145.999 99.5666C144.778 101.278 143.557 102.989 141.875 104.239C141.108 104.831 140.463 105.524 139.822 106.213C139.357 106.712 138.895 107.209 138.39 107.664C137.669 108.325 136.707 108.806 135.746 109.226C135.593 109.292 135.481 109.42 135.37 109.546C135.175 109.767 134.987 109.98 134.604 109.827C134.289 109.827 134.158 109.644 134.01 109.438C133.988 109.408 133.966 109.377 133.943 109.346C133.646 108.901 133.377 108.438 133.109 107.975L133.109 107.975C132.51 106.941 131.912 105.91 130.999 105.08C130.884 104.965 130.879 104.795 130.879 104.623C129.581 103.707 128.178 103.001 126.766 102.291C126.233 102.024 125.7 101.755 125.17 101.475C125.169 101.473 125.168 101.472 125.166 101.47C125.168 101.491 125.169 101.513 125.17 101.534C124.217 101.497 123.331 101.215 122.443 100.931C121.876 100.751 121.309 100.57 120.724 100.452C120.023 100.059 119.929 99.3779 119.836 98.7122C119.802 98.4638 119.767 98.2174 119.702 97.9888C119.342 96.5467 119.342 95.0445 119.642 93.5423C119.784 92.8472 119.922 92.1494 120.062 91.4505C120.571 88.8872 121.084 86.3105 121.745 83.8081C121.894 83.2369 121.992 82.6554 122.089 82.0764C122.227 81.2545 122.364 80.4376 122.646 79.662C122.797 79.2414 122.797 78.8358 122.797 78.4302C122.797 78.0246 122.797 77.619 122.947 77.1984C123.034 76.9212 123.133 76.6439 123.231 76.3658C123.538 75.4987 123.848 74.6232 123.848 73.7133C123.848 73.3073 123.995 72.95 124.139 72.5976C124.315 72.1677 124.488 71.745 124.389 71.2497C124.329 71.0093 124.449 70.7089 124.569 70.5286C125.11 69.8075 125.29 68.9663 125.29 68.065C125.29 67.5112 125.555 67.0811 125.826 66.6405C126.056 66.2684 126.289 65.8889 126.372 65.4211C126.672 63.4983 127.093 61.5755 127.814 59.8329C128.056 59.214 128.371 58.6071 128.687 57.9961C129.078 57.2428 129.471 56.4831 129.737 55.6869C129.767 55.6118 129.801 55.5367 129.834 55.4615C129.936 55.2362 130.037 55.0109 130.037 54.7855C130.193 53.731 130.629 52.8288 131.047 51.9634C131.272 51.4974 131.491 51.0421 131.66 50.5794C131.689 50.5355 131.718 50.4908 131.747 50.4454C131.72 50.4519 131.691 50.4569 131.66 50.4604C131.9 48.6577 132.862 47.2156 134.003 45.8937C134.082 45.7987 134.153 45.6954 134.224 45.5915C134.424 45.3008 134.626 45.005 135.025 44.8722C135.007 44.9252 134.979 44.9887 134.95 45.0549L134.946 45.063C134.974 45.0394 135.001 45.0158 135.025 44.9922ZM132.32 49.4404C132.32 49.4395 132.32 49.4386 132.321 49.4377C132.32 49.4391 132.319 49.4404 132.319 49.4417C132.316 49.4166 132.308 49.3958 132.29 49.3856C132.307 49.3911 132.321 49.406 132.321 49.4389L132.32 49.4404ZM146.858 37.847C146.819 37.8811 146.772 37.9095 146.717 37.9328C146.769 37.9255 146.816 37.9003 146.858 37.847ZM132.245 49.3865C132.232 49.3899 132.222 49.3946 132.22 49.3962C132.218 49.3978 132.224 49.3961 132.245 49.3865Z" fill="white"></path>
<path fill-rule="evenodd" clip-rule="evenodd" d="M115.136 163.007C115.136 162.346 115.197 161.685 115.377 161.084C115.377 161.016 115.387 160.947 115.396 160.878C115.421 160.707 115.445 160.535 115.317 160.363C115.209 160.202 115.294 160.041 115.356 159.923C115.363 159.909 115.37 159.895 115.377 159.883C115.397 159.783 115.424 159.682 115.45 159.582C115.504 159.382 115.557 159.182 115.557 158.981C115.557 158.568 115.699 158.241 115.846 157.9C115.913 157.746 115.981 157.588 116.038 157.419C116.091 157.279 116.169 157.148 116.247 157.018C116.438 156.702 116.628 156.385 116.458 155.917C116.253 155.3 116.203 154.663 116.154 154.029C116.118 153.552 116.081 153.076 115.978 152.612C115.858 151.891 115.978 151.29 116.759 151.05C117.54 150.87 117.9 151.41 118.261 151.951C118.381 152.071 118.441 152.312 118.441 152.492C118.513 153.429 118.802 154.301 119.086 155.161C119.275 155.734 119.463 156.301 119.583 156.878C119.604 156.961 119.621 157.054 119.639 157.151C119.724 157.62 119.827 158.18 120.424 158.08C121.077 157.98 120.975 157.377 120.888 156.865C120.871 156.764 120.855 156.667 120.845 156.578C120.693 155.682 120.583 154.776 120.474 153.871C120.195 151.557 119.915 149.243 118.922 147.084C118.802 146.844 118.742 146.543 118.742 146.303C118.742 145.702 118.381 145.341 117.84 145.161C117.54 145.041 117.3 145.041 116.999 145.101C116.781 145.137 116.541 145.108 116.305 145.079C116.152 145.06 116 145.041 115.857 145.041C114.776 144.981 114.656 145.101 114.596 146.123C114.596 146.158 114.598 146.194 114.6 146.23C114.61 146.376 114.62 146.531 114.475 146.723C114.055 145.462 113.574 144.44 112.072 144.38C112.009 144.38 111.954 144.387 111.901 144.394C111.88 144.397 111.859 144.4 111.838 144.402C111.836 144.395 111.833 144.387 111.831 144.379C111.497 144.045 111.046 143.914 110.601 143.785C110.406 143.728 110.211 143.671 110.028 143.598C109.998 143.598 109.953 143.583 109.908 143.568C109.863 143.553 109.818 143.538 109.788 143.538C108.526 143.418 107.444 142.937 106.423 142.336C106.06 142.253 105.711 142.091 105.362 141.93C104.959 141.745 104.558 141.56 104.139 141.495C104.079 141.495 103.959 141.555 103.899 141.615C103.752 141.709 103.599 141.796 103.447 141.884C102.912 142.19 102.377 142.497 102.096 143.057C101.75 143.519 101.321 143.884 100.888 144.251C100.42 144.649 99.9476 145.05 99.5728 145.581C99.4364 145.763 99.2314 145.876 99.0096 145.998C98.9381 146.038 98.8649 146.078 98.7916 146.122C97.493 146.771 96.4843 147.768 95.6516 148.943C95.4999 148.841 95.3983 148.935 95.3042 149.022C95.2457 149.076 95.1901 149.127 95.1271 149.127C93.5494 150.021 92.2479 151.283 90.9405 152.551C90.7541 152.732 90.5676 152.913 90.3802 153.093C89.9896 153.453 89.554 153.784 89.1183 154.114C88.6827 154.445 88.2471 154.775 87.8565 155.136C87.5635 155.429 87.3886 155.804 87.2166 156.174C87.0006 156.637 86.7892 157.091 86.3543 157.359C85.4417 157.935 84.9514 158.896 84.4845 159.81C84.3673 160.04 84.2516 160.267 84.131 160.484C83.1696 162.166 82.1481 163.849 81.0666 165.411C80.8774 165.663 80.8371 165.899 80.7982 166.126C80.7629 166.333 80.7287 166.533 80.5859 166.733C79.4442 168.175 78.4227 169.737 77.7016 171.42C77.4778 171.963 77.22 172.502 76.961 173.044C76.2463 174.539 75.5225 176.053 75.4784 177.729C75.4498 178.415 75.2578 179.061 75.0644 179.711C74.8516 180.427 74.6371 181.148 74.6371 181.935C74.6371 182.423 74.7147 182.881 74.791 183.331C74.8649 183.767 74.9376 184.196 74.9376 184.639C74.959 185.261 74.9422 185.884 74.9253 186.506C74.895 187.626 74.8646 188.746 75.0578 189.867C75.206 190.868 75.423 191.846 75.6379 192.815C75.7714 193.417 75.9041 194.015 76.0191 194.614C76.1994 195.755 76.7402 196.897 77.4012 197.918C77.6479 198.325 77.8701 198.756 78.0932 199.188C78.7936 200.547 79.5025 201.922 81.0064 202.605C81.2745 202.806 81.5286 203.026 81.7817 203.245C82.4362 203.811 83.0841 204.372 83.9508 204.588C85.1525 205.309 86.3543 206.03 87.7964 206.09C88.0679 206.111 88.3467 206.168 88.6302 206.227C89.1623 206.336 89.7112 206.448 90.26 206.331C92.8438 206.03 95.1271 205.249 97.1701 203.627C97.5908 203.296 98.0114 202.981 98.432 202.665C98.8526 202.35 99.2732 202.034 99.6938 201.704C101.016 200.622 102.097 199.361 103.179 197.979C103.908 196.992 104.454 195.913 104.99 194.852C105.205 194.427 105.419 194.005 105.643 193.592C105.936 193.064 106.273 192.556 106.612 192.045C107.315 190.987 108.022 189.922 108.346 188.665C108.389 188.516 108.424 188.359 108.46 188.2C108.524 187.911 108.591 187.614 108.707 187.343C109.309 186.268 109.511 185.039 109.709 183.833C109.788 183.353 109.866 182.877 109.969 182.416C110.089 181.895 110.216 181.374 110.343 180.853C110.596 179.812 110.85 178.77 111.05 177.729C111.213 176.753 111.481 175.813 111.75 174.87C111.978 174.07 112.207 173.268 112.372 172.441C112.62 171.166 113.014 169.933 113.407 168.704C113.68 167.848 113.953 166.995 114.175 166.132C114.268 165.735 114.434 165.348 114.602 164.955C114.867 164.337 115.136 163.706 115.136 163.007ZM80.945 175.746C80.9452 175.746 80.9454 175.746 80.9456 175.746C80.9456 175.746 80.9455 175.746 80.9455 175.745C80.9453 175.746 80.9452 175.746 80.945 175.746ZM78.7475 187.282C78.7217 187.28 78.6973 187.276 78.6742 187.271C78.6901 187.314 78.7062 187.357 78.7222 187.402C78.7316 187.362 78.74 187.322 78.7475 187.282ZM82.3874 180.739C82.3886 180.738 82.3899 180.738 82.3911 180.738C82.39 180.736 82.3888 180.734 82.3876 180.733C82.3875 180.735 82.3875 180.737 82.3874 180.739ZM87.2325 191.925C87.2793 191.803 87.336 191.683 87.4048 191.565C87.31 191.675 87.2579 191.799 87.2325 191.925ZM88.1554 180.012C88.1558 180.012 88.1561 180.012 88.1564 180.012C88.1563 180.012 88.1562 180.012 88.156 180.012C88.1558 180.012 88.1556 180.012 88.1554 180.012Z" fill="white"></path>
<path fill-rule="evenodd" clip-rule="evenodd" d="M155.606 127.554C155.576 127.539 155.546 127.524 155.516 127.494C155.267 127.565 155.039 127.531 154.857 127.504C154.732 127.485 154.628 127.469 154.555 127.494C152.992 127.073 151.43 126.953 149.808 126.833C149.483 126.805 149.158 126.771 148.833 126.738C147.056 126.554 145.286 126.371 143.558 127.133C143.49 127.161 143.428 127.189 143.374 127.218C143.377 127.209 143.378 127.201 143.378 127.193C143.234 127.217 143.081 127.222 142.929 127.226C142.701 127.234 142.477 127.241 142.296 127.313C141.515 127.613 140.674 127.613 139.953 127.493C139.172 127.313 138.571 127.313 138.03 127.914C137.91 128.455 137.73 129.056 137.549 129.596C137.533 129.696 137.507 129.795 137.481 129.896C137.413 130.16 137.342 130.433 137.429 130.738C137.15 132.042 136.654 133.201 135.997 134.3C135.794 134.519 135.61 134.773 135.447 135.065C135.394 135.117 135.342 135.17 135.329 135.262C135.328 135.236 135.327 135.211 135.327 135.185C133.945 136.327 132.684 137.709 131.662 139.211C131.68 139.211 131.692 139.211 131.696 139.217C131.707 139.231 131.67 139.281 131.542 139.451L131.542 139.451C131.611 139.451 131.688 139.443 131.765 139.425C131.732 139.514 131.667 139.6 131.602 139.687C131.448 139.891 131.29 140.1 131.542 140.352C131.733 140.521 131.908 140.727 132.082 140.932C132.402 141.308 132.715 141.677 133.104 141.794C134.082 142.108 134.856 142.726 135.628 143.342C136.185 143.787 136.741 144.23 137.371 144.558C137.748 144.752 138.13 144.94 138.514 145.129C140.389 146.053 142.283 146.987 143.68 148.584C143.811 148.714 144.036 148.814 144.242 148.904L144.242 148.904C144.32 148.938 144.395 148.971 144.461 149.004C144.882 149.245 145.316 149.465 145.75 149.685C146.618 150.126 147.486 150.567 148.247 151.168C149.238 151.979 150.331 152.587 151.424 153.196C151.788 153.398 152.152 153.601 152.513 153.811C152.567 153.848 152.621 153.884 152.675 153.92C153.152 154.242 153.601 154.545 154.195 154.653C154.252 154.676 154.31 154.701 154.367 154.726C154.256 154.728 154.139 154.743 154.015 154.774C154.676 155.435 155.397 156.036 156.238 156.456C156.44 156.578 156.645 156.69 156.848 156.801C157.552 157.186 158.235 157.56 158.702 158.259C158.942 158.62 159.303 158.86 159.723 158.98C160.337 159.216 160.969 159.424 161.605 159.634C162.588 159.958 163.581 160.285 164.53 160.723C165.336 161.103 166.183 161.4 167.032 161.698C168.462 162.199 169.895 162.702 171.14 163.607C171.741 164.027 172.462 164.148 173.183 164.148C173.038 164.032 172.876 163.951 172.707 163.883C172.909 163.939 173.109 164.002 173.302 164.087C175.29 165.057 177.357 165.831 179.407 166.6L179.408 166.6L179.41 166.601C179.899 166.784 180.387 166.967 180.873 167.152C182.976 167.993 185.32 168.654 187.783 168.414C189.12 168.284 190.364 167.846 191.603 167.408L191.604 167.408C192.091 167.236 192.579 167.064 193.071 166.911C193.226 166.867 193.384 166.825 193.545 166.782C194.26 166.593 195.017 166.391 195.655 165.95C197.097 164.929 198.359 163.727 199.38 162.285C200.462 160.782 201.123 159.22 201.003 157.297C200.976 157.017 200.943 156.737 200.911 156.456C200.796 155.475 200.682 154.493 200.822 153.512C200.942 152.791 200.582 152.07 200.221 151.409C199.93 150.905 199.662 150.401 199.396 149.903C199.06 149.271 198.728 148.648 198.359 148.044C196.917 145.76 195.174 143.778 192.951 142.335C190.762 140.935 188.478 139.662 186.215 138.4L186.215 138.4L186.215 138.4L186.215 138.4C185.371 137.93 184.529 137.461 183.697 136.988C183.275 136.788 182.894 136.522 182.515 136.257C181.868 135.806 181.226 135.359 180.392 135.245C180.08 135.245 179.888 135.065 179.689 134.877C179.543 134.741 179.394 134.6 179.191 134.524C177.869 134.103 176.607 133.623 175.345 132.962C175.239 132.901 175.133 132.833 175.024 132.763C174.701 132.555 174.352 132.331 173.903 132.241C172.401 131.94 170.959 131.46 169.577 130.738C169.186 130.558 168.81 130.348 168.435 130.138L168.435 130.138C168.059 129.927 167.684 129.717 167.293 129.537C166.602 129.226 165.87 129.073 165.133 128.92C164.59 128.807 164.043 128.694 163.508 128.515C161.284 127.734 159.001 127.614 156.718 127.794C156.628 127.776 156.533 127.748 156.435 127.718C156.202 127.648 155.949 127.572 155.696 127.614C155.666 127.584 155.636 127.569 155.606 127.554ZM143.125 127.649C143.116 127.637 143.109 127.624 143.103 127.611C143.106 127.625 143.113 127.638 143.125 127.649ZM174.445 160.332C174.453 160.296 174.463 160.258 174.478 160.219C174.436 160.238 174.417 160.27 174.445 160.332ZM164.967 148.029C164.73 147.834 164.488 147.643 164.247 147.452C164.007 147.262 163.766 147.071 163.529 146.877C163.921 147.317 164.441 147.673 164.967 148.029ZM154.508 140.438C153.404 139.809 152.272 139.229 151.13 138.67C150.682 138.458 150.272 138.182 149.862 137.906C149.742 137.825 149.622 137.744 149.502 137.665C149.589 137.769 149.672 137.884 149.749 138.009C149.809 138.13 149.929 138.25 150.049 138.25C150.846 138.471 152.653 139.442 153.934 140.13L153.934 140.131L153.934 140.131C154.141 140.242 154.334 140.346 154.508 140.438ZM149.206 143.23C149.199 143.229 149.192 143.229 149.186 143.228L149.208 143.237L149.211 143.23C149.209 143.23 149.207 143.23 149.206 143.23ZM135.651 135.975C135.585 135.921 135.525 135.861 135.476 135.792C135.522 135.866 135.58 135.928 135.651 135.975Z" fill="white"></path>
<path fill-rule="evenodd" clip-rule="evenodd" d="M189.621 84.1814C188.85 84.0607 187.97 83.9228 187.181 84.2908C187.004 84.276 186.826 84.2685 186.652 84.2611C186.116 84.2384 185.606 84.2168 185.198 83.9903C184.804 83.9903 184.436 84.0828 184.07 84.1748C183.655 84.279 183.242 84.3828 182.795 84.3508C182.766 84.365 182.735 84.3826 182.701 84.4011C182.593 84.461 182.466 84.5311 182.374 84.5311C180.992 84.5912 179.61 84.7114 178.228 85.0118C177.959 85.0657 177.679 85.1035 177.399 85.1412C176.743 85.2296 176.09 85.3178 175.584 85.6127C174.529 86.2878 173.386 86.6666 172.257 87.0404C171.778 87.199 171.302 87.3566 170.837 87.5355C170.116 87.856 169.342 88.0697 168.567 88.2833C168.18 88.3901 167.793 88.4969 167.412 88.6171C165.967 89.0219 164.632 89.8719 163.356 90.685C163.306 90.7169 163.256 90.7486 163.206 90.7803C162.953 90.9383 162.734 90.9301 162.512 90.9218C162.313 90.9143 162.112 90.9067 161.884 91.0206C161.495 91.23 161.107 91.4318 160.72 91.6328C159.552 92.2393 158.401 92.8371 157.317 93.6044C156.765 94.0191 156.197 94.4089 155.63 94.7981C154.225 95.7627 152.825 96.7238 151.669 98.0509C150.596 99.2779 149.277 100.236 147.964 101.19C147.22 101.731 146.476 102.271 145.781 102.858C144.881 103.603 144.037 104.392 143.196 105.178C142.07 106.231 140.95 107.277 139.712 108.206C138.637 109 137.708 109.903 136.783 110.802C136.518 111.06 136.254 111.317 135.986 111.571C135.806 111.571 135.686 111.691 135.686 111.871C135.766 112.032 135.845 112.193 135.923 112.353C136.314 113.151 136.698 113.935 137.248 114.635C137.259 114.646 137.269 114.656 137.28 114.666C137.28 114.666 137.28 114.666 137.28 114.666C137.25 114.656 137.219 114.645 137.189 114.635C137.23 114.757 137.264 114.882 137.299 115.007C137.383 115.313 137.468 115.62 137.644 115.89C137.647 115.949 137.655 116.011 137.669 116.077C137.586 117.771 137.816 119.465 138.046 121.159C138.15 121.928 138.255 122.698 138.33 123.468C138.39 123.709 138.45 123.949 138.75 124.069C138.93 124.49 138.81 124.91 138.69 125.331L138.69 125.331C138.57 125.691 138.63 125.872 139.051 125.932C140.927 126.33 142.75 125.974 144.519 125.63C144.619 125.61 144.719 125.591 144.819 125.571C145.23 125.492 145.644 125.415 146.06 125.338C147.528 125.066 149.016 124.791 150.467 124.369C151.1 124.189 151.747 124.159 152.402 124.129C153.054 124.099 153.714 124.069 154.373 123.889C156.056 123.408 157.858 123.108 159.661 123.168C160.021 123.168 160.382 123.117 160.742 123.066C161.343 122.982 161.944 122.897 162.545 123.048C163.308 123.238 163.996 123.126 164.698 123.012C164.88 122.982 165.063 122.952 165.249 122.927C165.884 122.87 166.464 122.659 167.042 122.449C167.666 122.223 168.288 121.997 168.975 121.966C170.657 121.906 172.339 121.365 173.782 120.644C175.059 119.966 176.415 119.711 177.763 119.458C178.445 119.331 179.124 119.203 179.79 119.022C180.243 118.904 180.695 118.764 181.151 118.622C182.331 118.255 183.538 117.88 184.838 117.88C185.545 117.88 186.234 117.71 186.925 117.539C187.466 117.406 188.009 117.272 188.563 117.219C190.426 117.039 192.289 116.438 193.971 115.537C194.572 115.537 195.173 115.416 195.774 115.236C195.923 115.223 196.075 115.215 196.228 115.208C196.756 115.182 197.305 115.155 197.817 114.876C198.412 114.95 198.916 114.679 199.398 114.418C199.695 114.259 199.983 114.103 200.28 114.034C201.208 113.842 202.068 113.48 202.923 113.12C203.673 112.803 204.421 112.488 205.208 112.292C206.469 111.991 207.551 111.15 208.152 109.888C208.452 109.227 208.873 108.566 209.294 108.026C210.856 105.922 211.877 102.858 211.998 100.094C212.058 98.6518 211.577 97.45 210.976 96.3685C210.255 95.0465 209.534 93.7246 208.573 92.5829C208.256 92.2136 207.963 91.8328 207.672 91.4556C207.301 90.9735 206.934 90.4975 206.53 90.0592C205.816 89.2944 204.756 88.8325 203.717 88.3797C203.531 88.2989 203.347 88.2183 203.165 88.1364C202.847 87.9776 202.538 87.7846 202.231 87.5928C201.725 87.2767 201.225 86.9641 200.701 86.8145C200.01 86.6042 199.319 86.4089 198.628 86.2136C197.937 86.0183 197.246 85.823 196.555 85.6127C194.392 84.9518 192.169 84.5912 189.945 84.2307L189.945 84.2307C189.84 84.2156 189.732 84.1987 189.621 84.1814ZM172.7 94.5926C172.819 94.5813 172.939 94.5722 173.06 94.5658C172.905 94.5538 172.749 94.5443 172.594 94.539C172.629 94.5556 172.664 94.5735 172.7 94.5926ZM169.443 94.6177C169.405 94.5824 169.381 94.5406 169.37 94.4899C169.342 94.5335 169.328 94.5787 169.336 94.6259C169.372 94.6219 169.408 94.6193 169.443 94.6177Z" fill="white"></path>
<path fill-rule="evenodd" clip-rule="evenodd" d="M102.544 102.122L102.544 102.122C102.005 101.275 101.459 100.417 100.774 99.7326C99.8176 98.7758 99.2594 97.6017 98.7018 96.429C98.2439 95.4658 97.7864 94.5037 97.109 93.6637C96.6861 93.1562 96.4418 92.4702 96.2085 91.815C96.1103 91.5393 96.0141 91.269 95.9073 91.0198C95.5207 89.9655 94.8875 89.0756 94.26 88.1939C93.8147 87.5681 93.3722 86.9464 93.023 86.2729C92.5022 85.2313 91.9281 84.1897 91.3539 83.1482L91.3538 83.148C91.0668 82.6274 90.7797 82.1067 90.4994 81.586C89.8985 80.5044 89.2976 79.543 88.5765 78.5215C87.4349 76.8992 86.4133 75.2167 85.6322 73.3539C85.4435 72.9388 85.2627 72.5185 85.0816 72.0973C84.3974 70.5063 83.708 68.9032 82.5677 67.5254C82.1118 66.9866 81.9704 66.3049 81.8279 65.6183C81.7638 65.3094 81.6995 64.9996 81.6063 64.7013L81.6062 64.7011C81.426 64.1604 81.2458 63.6196 80.9453 63.0789C80.9294 63.047 80.905 63.0066 80.8788 62.9634C80.8065 62.8438 80.721 62.7024 80.7651 62.6583C81.0757 61.8645 80.7123 61.2491 80.3467 60.63C80.0758 60.1711 79.8037 59.7103 79.8037 59.1732C79.8037 58.2089 79.3063 57.4786 78.8016 56.7374C78.583 56.4163 78.3629 56.0932 78.1813 55.7482L78.1305 55.6467C77.6038 54.595 77.0452 53.4799 77.2199 52.0828C77.4306 50.186 76.9946 48.3355 76.56 46.4907C76.4989 46.2315 76.4379 45.9725 76.3787 45.7135C76.1984 44.8722 76.1984 44.031 76.3787 43.2499C76.4988 42.6491 76.4988 42.1084 76.4988 41.5077V41.5073C76.3786 39.8248 76.9194 38.3226 77.6405 36.8204C78.9023 34.3568 80.4647 32.0134 82.087 29.7301C82.8317 28.6989 83.9041 28.1047 84.9398 27.5308L85.0914 27.4467C86.173 26.9059 87.3748 26.6055 88.6366 26.6055L88.6367 26.6055C88.9972 26.6055 89.4178 26.6055 89.7783 26.4252C90.8063 25.9924 91.883 25.998 92.9207 26.0034C93.0354 26.004 93.1497 26.0046 93.2634 26.0046C94.2248 25.9445 95.2463 26.4853 96.0875 26.966C97.7321 27.8132 99.1286 28.991 100.551 30.191C100.844 30.4379 101.138 30.6857 101.435 30.9318C102.822 32.0736 103.572 33.5198 104.324 34.9699L104.324 34.9699C104.68 35.6566 105.036 36.3442 105.461 37.0007C105.828 37.5882 106.176 38.1957 106.527 38.811L106.527 38.811C107.039 39.7059 107.56 40.6171 108.165 41.5073C108.686 42.3085 109.1 43.2164 109.514 44.1244C109.721 44.5784 109.928 45.0325 110.148 45.4731C110.54 46.2562 110.79 47.1098 111.041 47.9664C111.445 49.3448 111.852 50.7307 112.852 51.8424C113.321 52.3703 113.39 53.127 113.449 53.7776L113.453 53.8253C113.813 56.4692 114.174 59.1131 114.354 61.757C114.389 62.5982 114.389 63.4395 114.388 64.2792C114.386 66.3186 114.384 68.3491 114.895 70.3495C115.436 72.4526 115.676 74.6158 115.736 76.7189C115.754 77.2237 115.826 77.7339 115.899 78.2479C116.069 79.447 116.241 80.6667 115.736 81.8864C115.496 82.4873 115.556 83.2685 115.736 83.9295C116.236 85.5379 116.12 87.1464 116.005 88.7548C115.996 88.8889 115.986 89.023 115.977 89.1571C115.939 89.8387 116.068 90.5442 116.199 91.2585C116.276 91.6777 116.353 92.0998 116.397 92.522C116.468 93.1855 116.558 93.8584 116.648 94.5332C116.786 95.5695 116.925 96.6105 116.998 97.6295C117.012 97.8298 117.031 98.0301 117.05 98.2304C117.118 98.9314 117.185 99.6324 116.998 100.333C116.277 101.415 115.196 101.595 114.054 101.535C114.009 101.487 113.966 101.437 113.925 101.388C113.565 101.545 113.164 101.552 112.766 101.559C112.379 101.566 111.995 101.573 111.651 101.716C109.548 102.257 107.505 102.918 105.703 104.179C105.655 104.215 105.607 104.252 105.559 104.29C105.124 104.627 104.67 104.979 104.02 104.6C103.87 104.3 103.705 104.014 103.54 103.729L103.539 103.729C103.435 103.549 103.331 103.369 103.231 103.186C103.18 103.124 103.112 103.027 103.058 102.917C102.884 102.657 102.715 102.39 102.544 102.122ZM109.968 85.011C109.983 85.0205 109.997 85.0299 110.011 85.0395C110.024 85.1526 110.054 85.2673 110.089 85.3719C110.099 85.4055 110.109 85.4395 110.119 85.4737L110.119 85.4739C110.235 85.8683 110.361 86.2973 110.029 86.5737C109.968 86.6204 109.914 86.6672 109.867 86.714C110.012 86.1937 110.075 85.6557 109.968 85.011ZM109.487 87.7751C109.511 87.7154 109.535 87.6563 109.558 87.5975C109.581 87.779 109.636 87.9659 109.694 88.161L109.694 88.161C109.727 88.2701 109.76 88.3818 109.789 88.4965C109.892 89.0107 109.916 89.5445 109.941 90.0755C109.959 90.4752 109.977 90.8734 110.029 91.2605C110.075 91.6279 110.051 91.8549 109.795 91.9684C109.867 91.7564 109.873 91.4989 109.848 91.2001C109.818 90.9597 109.803 90.7194 109.788 90.479C109.773 90.2387 109.758 89.9983 109.728 89.758C109.706 89.5226 109.639 89.2644 109.572 89.0077C109.452 88.5436 109.332 88.0846 109.487 87.7751ZM108.225 93.7238C108.225 93.5015 108.266 93.2894 108.351 93.1083C108.337 93.2442 108.336 93.3901 108.347 93.5439C108.407 94.1448 108.527 94.6856 108.767 95.2264C109.488 96.6685 109.669 98.2308 109.669 99.8531C109.669 99.8784 109.67 99.9048 109.671 99.9318C109.678 100.09 109.686 100.267 109.459 100.327C109.493 100.171 109.491 99.9968 109.488 99.8419C109.488 99.8041 109.487 99.7675 109.487 99.7326C109.427 98.2905 109.247 96.8484 108.646 95.5264C108.406 94.9856 108.225 94.3848 108.225 93.7238ZM90.3191 67.8258C90.2786 67.5832 90.211 67.2861 90.0062 67.1727C90.026 67.1132 90.0787 67.0693 90.2 67.0451C90.4404 67.0451 90.5005 67.1653 90.5005 67.4056C90.518 67.5805 90.5609 67.7452 90.6189 67.9042C90.6988 68.2621 90.7955 68.6169 90.9199 68.9675C90.6195 68.607 90.4392 68.2465 90.3191 67.8258ZM80.044 43.6104C79.684 41.9133 79.8082 40.2602 80.6049 38.7265C80.3461 39.3052 80.1681 39.9175 80.1052 40.5463C79.925 41.8682 80.0451 43.07 80.4057 44.3318C80.5102 44.7498 80.6046 45.1729 80.6991 45.5966L80.6991 45.5966C80.9308 46.6347 81.1633 47.6767 81.5474 48.6582C82.0565 49.9674 82.6097 51.2327 83.1669 52.5072L83.167 52.5074C83.5304 53.3385 83.8956 54.1736 84.2513 55.0275C84.268 55.0691 84.2849 55.111 84.302 55.1532C84.531 55.7199 84.7796 56.3351 84.6118 56.9503C84.2827 58.2258 84.3198 59.5295 84.3566 60.8228C84.3736 61.4182 84.3904 62.0113 84.3715 62.5986C84.3379 63.0694 84.4925 63.4838 84.6457 63.8944C84.7662 64.2174 84.8858 64.538 84.9123 64.8819C85.1082 66.8414 85.8233 68.6012 86.5367 70.3566C86.6984 70.7544 86.8599 71.152 87.0154 71.5517C87.0253 71.5765 87.0352 71.6006 87.0448 71.6238C87.1484 71.8742 87.2124 72.0288 86.8097 72.0878C86.7826 71.9047 86.7869 71.7075 86.834 71.4912C85.5721 68.6671 84.8511 65.6627 84.1901 62.5982C84.1 62.2076 84.1751 61.8321 84.2502 61.4565C84.3253 61.081 84.4004 60.7054 84.3103 60.3149C84.0699 59.4736 84.1901 58.5122 84.3704 57.671C84.5506 56.8898 84.4906 56.1688 84.1901 55.4477C84.0835 55.1811 83.9821 54.9145 83.8813 54.6495C83.6413 54.0185 83.4047 53.3963 83.1085 52.8039C81.6063 49.8595 80.705 46.795 80.044 43.6104ZM87.5207 73.3976C87.3775 73.2172 87.2343 73.0368 87.1132 72.8465C87.3143 72.8398 87.4097 72.9643 87.522 73.111C87.5678 73.1708 87.6165 73.2344 87.6763 73.2942C88.1346 73.7525 88.324 74.3141 88.5115 74.8699C88.6436 75.2616 88.7747 75.6505 88.9983 75.9982C90.861 78.8223 92.5435 81.7666 94.1058 84.771C94.5343 85.5996 95.058 86.3738 95.5799 87.1454L95.5799 87.1454L95.5799 87.1455C96.1556 87.9966 96.729 88.8444 97.1702 89.7583C97.4815 90.3809 97.9127 90.9101 98.3446 91.4402L98.3446 91.4403C98.8298 92.0358 99.3159 92.6324 99.6338 93.3636C99.7395 93.6013 99.7987 93.8621 99.8574 94.1207C99.8903 94.2657 99.923 94.41 99.9637 94.5491C99.8737 94.3337 99.7834 94.1187 99.6928 93.9041C99.4525 93.3032 99.152 92.6422 98.7314 92.1014C96.7501 89.6249 95.1722 86.8963 93.5819 84.1465C93.4359 83.894 93.2898 83.6413 93.1432 83.3886C92.8577 82.8849 92.5676 82.3811 92.2766 81.876L92.2761 81.8751L92.2761 81.8751C91.5262 80.5731 90.7713 79.2625 90.0787 77.9207C89.8605 77.506 89.5868 77.1231 89.3152 76.7431C88.8389 76.0768 88.369 75.4194 88.216 74.6158C88.1178 74.1495 87.8192 73.7735 87.5207 73.3976ZM100.175 95.0461L100.163 95.0269C100.312 95.3847 100.46 95.7432 100.608 96.1018L100.608 96.102C101.431 98.0906 102.256 100.085 103.178 102.016C103.208 102.106 103.253 102.196 103.298 102.286C103.343 102.376 103.388 102.467 103.418 102.557C103.456 102.707 103.494 102.858 103.457 102.994C103.505 102.988 103.552 102.965 103.6 102.918C103.72 102.797 103.66 102.617 103.54 102.497C102.813 101.265 102.286 99.9344 101.758 98.5997C101.28 97.3946 100.802 96.1865 100.175 95.0461Z" fill="white"></path>
<path fill-rule="evenodd" clip-rule="evenodd" d="M98.9117 139.512C99.3322 139.031 99.7528 138.55 100.354 138.25C100.414 138.13 100.414 138.01 100.294 138.13C100.294 138.01 100.233 137.89 100.173 137.769L100.173 137.769C100.138 137.699 100.108 137.629 100.079 137.56C100.008 137.394 99.9405 137.236 99.8128 137.108C99.6583 137.005 99.5369 136.869 99.4155 136.733C99.2732 136.574 99.1309 136.414 98.9353 136.308C98.9674 136.295 98.9994 136.282 99.0314 136.269C98.9871 136.092 98.9673 135.907 98.9479 135.725C98.9147 135.414 98.8827 135.115 98.731 134.887C98.2229 134.17 98.027 133.349 97.8327 132.534C97.6364 131.711 97.4418 130.895 96.9283 130.201C96.5278 129.68 96.234 129.052 95.9403 128.425C95.7934 128.111 95.6465 127.797 95.4862 127.497C95.4793 127.552 95.4748 127.607 95.4728 127.661L95.4264 127.614C95.3949 127.541 95.3672 127.464 95.3392 127.387C95.2069 127.02 95.0708 126.643 94.525 126.593C93.2209 126.474 92.0467 126.018 90.8829 125.566C90.2771 125.33 89.6741 125.096 89.0571 124.91C87.7351 124.49 86.4132 124.069 84.9711 123.949C84.4904 123.829 83.9496 123.889 83.4088 123.949C82.8001 123.558 82.1286 123.575 81.4851 123.592C81.2393 123.599 80.9975 123.605 80.7649 123.589C79.8335 123.559 78.9322 123.378 78.0309 123.198C77.1296 123.018 76.2282 122.837 75.2969 122.807C73.4537 122.724 71.6236 122.458 69.7883 122.192C67.6747 121.885 65.5543 121.578 63.3995 121.546C62.5064 121.546 61.5802 121.446 60.6455 121.346C60.3223 121.311 59.9982 121.276 59.674 121.245C58.6645 121.161 57.6551 121.283 56.6456 121.405C56.213 121.457 55.7803 121.51 55.3477 121.546C53.7854 121.666 52.2231 121.846 50.7209 122.086C48.7981 122.387 46.8753 122.627 44.8924 122.507C44.2314 122.447 43.6305 122.567 43.0897 122.928C42.519 123.335 41.8653 123.577 41.2037 123.822C40.8901 123.938 40.5747 124.054 40.2656 124.189C39.7567 124.437 39.2444 124.673 38.7328 124.909C37.1298 125.65 35.5341 126.387 34.0765 127.434C34.0013 127.49 33.926 127.545 33.8509 127.601C32.5458 128.562 31.2699 129.502 30.5313 130.979C30.4036 131.235 30.2458 131.46 30.0792 131.698C30.0106 131.796 29.9405 131.896 29.8703 132.001C29.2094 132.962 28.6686 133.984 28.5484 135.246C28.4883 135.696 28.4583 136.147 28.4282 136.598C28.3982 137.048 28.3682 137.499 28.3081 137.95C28.0076 139.752 27.8874 141.555 28.1278 143.358C28.1879 144.018 28.248 144.679 28.6686 145.28C29.6901 146.722 30.9519 147.984 32.2739 149.186C33.4155 150.268 34.6774 151.229 35.9392 152.07C37.6818 153.272 39.6046 154.233 41.8279 154.534C43.1788 154.708 44.5112 154.987 45.8429 155.266C48.6574 155.855 51.4688 156.444 54.4464 156.036C54.682 156.009 54.9183 155.982 55.1553 155.954C57.0341 155.734 58.9549 155.509 60.8758 155.615C61.1118 155.594 61.3479 155.534 61.5839 155.474C62.0089 155.367 62.4338 155.259 62.8587 155.375C63.3394 155.203 63.8201 155.189 64.3008 155.174C64.6613 155.163 65.0218 155.152 65.3824 155.075C68.1464 154.414 70.7903 153.512 73.3741 152.251C73.8248 152.036 74.2526 151.791 74.6765 151.547C75.4393 151.11 76.1897 150.68 77.0394 150.448C77.6796 150.279 78.2253 149.941 78.7718 149.602C79.2 149.336 79.6288 149.07 80.1039 148.886C80.5292 148.716 80.941 148.492 81.3585 148.265C81.8258 148.012 82.3001 147.754 82.8079 147.564C82.9352 147.515 83.0631 147.467 83.1915 147.418C84.3358 146.984 85.519 146.536 86.6535 145.941C87.5139 145.476 88.3924 145.056 89.2714 144.636C90.6636 143.97 92.0574 143.303 93.3834 142.456C93.5045 142.375 93.6238 142.295 93.7423 142.215C94.3298 141.817 94.8966 141.434 95.5466 141.134C95.8749 140.996 96.2181 140.888 96.562 140.779C97.4138 140.51 98.2694 140.24 98.9115 139.512L98.9117 139.512ZM74.9338 127.097C74.886 127.113 74.8381 127.127 74.7899 127.137C74.9395 127.144 75.0874 127.156 75.2338 127.172C75.1342 127.146 75.0341 127.121 74.9338 127.097ZM83.0141 130.307C83.0487 130.382 83.0643 130.468 83.0547 130.569C83.1419 130.531 83.2391 130.488 83.3485 130.441C83.2366 130.397 83.1251 130.352 83.0141 130.307ZM91.3868 133.888C91.4241 133.966 91.4496 134.057 91.4603 134.162C91.4596 134.049 91.4325 133.96 91.3868 133.888ZM45.322 151.768C45.6162 151.808 45.9085 151.844 46.1984 151.881L46.2744 151.89C46.3868 151.903 46.4992 151.916 46.6116 151.928C46.3474 151.894 46.0833 151.861 45.8196 151.829C45.6536 151.809 45.4877 151.788 45.322 151.768ZM59.7335 151.751C59.9977 151.693 60.2597 151.607 60.5152 151.469C60.5828 151.44 60.6534 151.427 60.7267 151.425C60.6877 151.399 60.6389 151.39 60.5751 151.412C60.2971 151.543 60.0164 151.655 59.7335 151.751ZM74.0152 149.313C74.4889 148.967 74.9804 148.651 75.4898 148.365C74.968 148.624 74.4591 148.925 74.0152 149.313ZM78.0992 147.21C78.1065 147.208 78.1138 147.206 78.121 147.203C78.431 147.1 78.7388 146.994 79.0457 146.889C79.8603 146.61 80.6683 146.333 81.4932 146.105C80.3171 146.342 79.1752 146.758 78.0992 147.21ZM74.2428 127.131C74.1756 127.117 74.1065 127.097 74.035 127.074C74.035 127.134 74.0951 127.134 74.1552 127.134L74.1552 127.134C74.1845 127.133 74.2137 127.132 74.2428 127.131Z" fill="white"></path>
<path fill-rule="evenodd" clip-rule="evenodd" d="M100.225 108.038C100.238 108.043 100.251 108.05 100.263 108.056L100.263 108.056C100.293 108.071 100.323 108.086 100.353 108.086C100.376 108.109 100.399 108.123 100.419 108.135C100.451 108.155 100.474 108.169 100.474 108.206C100.474 109.3 100.022 110.105 99.5592 110.929L99.5591 110.929C99.52 110.999 99.4809 111.069 99.4419 111.139C99.4486 111.222 99.452 111.307 99.452 111.392C99.452 111.452 99.4369 111.497 99.4219 111.542C99.4069 111.587 99.3919 111.632 99.3919 111.692C99.3829 111.704 99.3739 111.716 99.3649 111.727C99.375 111.764 99.3828 111.803 99.3907 111.843C99.4058 111.918 99.4208 111.993 99.4508 112.053C98.9332 112.743 98.5257 113.516 98.1163 114.292C97.6703 115.138 97.222 115.988 96.6267 116.74C96.4352 116.868 96.3454 117.131 96.2493 117.413C96.1796 117.617 96.1066 117.831 95.9891 118.011C95.9816 118.028 95.974 118.045 95.9661 118.062C95.906 118.182 95.906 118.302 95.9661 118.362C95.4633 118.793 95.3469 119.396 95.232 119.99C95.1682 120.321 95.1048 120.649 94.976 120.943C94.9862 120.964 94.996 120.984 95.0055 121.006C95.1256 121.366 95.1857 121.667 94.8853 122.027C94.5336 122.059 94.199 121.955 93.8633 121.851C93.568 121.759 93.2718 121.667 92.9625 121.667C92.9324 121.637 92.9024 121.622 92.8723 121.607C92.8423 121.592 92.8122 121.577 92.7822 121.547C92.4217 121.456 92.0611 121.351 91.7006 121.246C91.3401 121.141 90.9795 121.036 90.619 120.946C88.9072 119.989 87.0688 119.286 85.2452 118.588L85.2452 118.588C84.8924 118.453 84.5402 118.318 84.1896 118.182C82.6273 117.581 81.065 116.92 79.5628 116.199C78.8891 115.891 78.203 115.607 77.5145 115.323C76.0538 114.72 74.582 114.112 73.1935 113.254C72.1607 112.578 71.0435 112.028 69.9294 111.479C69.1638 111.102 68.3997 110.726 67.6654 110.31C66.5237 109.649 65.4421 109.108 64.1202 108.868C64.0601 108.868 64.0601 108.868 64.0601 108.808V108.808C63.5066 108.033 62.681 107.757 61.8479 107.478C61.3246 107.303 60.7983 107.126 60.3347 106.825C60.3404 106.793 60.3468 106.764 60.3539 106.737C60.0236 106.507 59.637 106.361 59.2444 106.213C58.9143 106.088 58.5801 105.962 58.2714 105.783C58.2004 105.765 58.1272 105.766 58.0513 105.803C57.1038 105.548 56.2226 105.072 55.3541 104.603L55.3541 104.603C54.7905 104.299 54.2324 103.997 53.6649 103.76C52.2228 103.16 50.8407 102.499 49.5789 101.537C49.3407 101.347 49.1025 101.16 48.8653 100.975C48.2053 100.458 47.5539 99.9487 46.935 99.374C46.42 98.8933 45.8265 98.5696 45.233 98.2459C44.7878 98.0031 44.3427 97.7603 43.9306 97.4513C42.9091 96.7302 41.9477 95.949 41.1065 95.1078C40.4042 94.4055 39.6231 93.7708 38.8412 93.1354C37.8167 92.3029 36.7908 91.4693 35.9389 90.481C35.8488 90.3796 35.7577 90.2779 35.6662 90.1759C34.2944 88.645 32.8369 87.0184 33.1749 84.6525C33.3016 83.7229 33.0124 82.8824 32.7251 82.0475L32.725 82.0473L32.725 82.0472C32.6038 81.695 32.4829 81.3437 32.3937 80.9871C32.2135 80.1459 32.0933 79.3046 32.1534 78.4634C32.1267 78.1705 32.2654 77.9129 32.4018 77.6594C32.5733 77.3409 32.7413 77.0288 32.574 76.6608C32.8744 75.1586 33.4753 73.8367 34.617 72.8152C34.6771 72.7851 34.7372 72.7401 34.7973 72.695C34.8573 72.6499 34.9174 72.6048 34.9775 72.5748C35.0456 72.5238 35.1088 72.4679 35.1714 72.4127C35.3296 72.2729 35.4832 72.1372 35.6986 72.0941C35.8788 71.9439 36.0741 71.8387 36.2694 71.7336C36.4647 71.6284 36.66 71.5233 36.8402 71.373C37.2262 71.2141 37.6079 71.0487 37.9885 70.8838C39.6226 70.1759 41.2374 69.4762 43.0894 69.33C43.249 69.33 43.3968 69.2712 43.5485 69.2108C43.7395 69.1347 43.9366 69.0562 44.171 69.0897L44.1744 69.0894C44.9544 69.0294 45.7343 68.9694 46.4543 68.9094C47.4008 68.8644 48.3473 68.9207 49.2937 68.977C49.6091 68.9958 49.9245 69.0146 50.2399 69.0296C50.9609 69.0696 51.6819 69.1631 52.4029 69.2566C52.7635 69.3033 53.124 69.3501 53.4846 69.3901C55.4187 69.6515 57.2619 70.3676 59.0536 71.0637L59.0543 71.064L59.0549 71.0642L59.055 71.0643C59.3224 71.1682 59.5887 71.2716 59.854 71.373C60.4051 71.583 60.9447 71.8273 61.4828 72.071L61.4829 72.071C62.177 72.3852 62.8687 72.6984 63.5794 72.9353C64.4731 73.2213 65.218 73.7625 65.9658 74.3059C66.4749 74.6758 66.9854 75.0468 67.5452 75.3388C67.7555 75.429 67.9658 75.5491 68.1762 75.6693C68.3865 75.7895 68.5968 75.9097 68.8071 75.9998C69.1075 76.2101 69.423 76.3754 69.7384 76.5406C70.0539 76.7059 70.3694 76.8711 70.6698 77.0814C70.9823 77.3698 71.314 77.639 71.6456 77.9082L71.6457 77.9082L71.6457 77.9082L71.6457 77.9083C72.1432 78.312 72.6407 78.7158 73.0733 79.1845L73.4339 79.3647C73.9911 79.3183 74.2971 79.6307 74.6015 79.9415C74.691 80.0328 74.7804 80.1241 74.876 80.206C75.9576 81.2275 77.0391 82.309 78.0005 83.4507C78.5 84.1868 79.126 84.8078 79.7527 85.4296L79.7527 85.4296C80.5585 86.2291 81.3655 87.0297 81.9063 88.0775C81.8462 88.7385 82.4471 89.0389 82.8677 89.2192C83.7761 89.7491 84.4698 90.4697 85.1593 91.1858L85.1593 91.1858C85.5645 91.6066 85.9681 92.0258 86.4129 92.4038C87.1353 93.0151 87.8192 93.665 88.5062 94.3177L88.5062 94.3178L88.5062 94.3178L88.5062 94.3178C89.3048 95.0766 90.1075 95.8393 90.9796 96.5499C92.2414 97.5714 93.4432 98.7131 94.1642 100.275C94.6186 101.222 95.4069 101.858 96.1835 102.485C96.6394 102.853 97.0912 103.218 97.4691 103.64C97.7463 103.945 97.9724 104.289 98.2004 104.635C98.4666 105.039 98.7354 105.447 99.0914 105.803C99.2277 105.94 99.3393 106.101 99.4485 106.258C99.5801 106.448 99.7084 106.634 99.8726 106.765C100.353 107.125 100.413 107.546 100.233 108.027L100.225 108.038ZM97.8862 113.69C97.9498 113.627 97.9958 113.569 98.027 113.514C97.9676 113.565 97.8979 113.617 97.8183 113.668L97.8288 113.675C97.8496 113.679 97.8687 113.684 97.8862 113.69ZM44.1728 78.0959C44.0906 78.0445 44.0074 77.9834 43.921 77.9182L43.9407 77.9279L44.063 77.9882C44.092 78.0327 44.1319 78.0678 44.1728 78.0959ZM44.3114 77.381C44.2609 77.4008 44.2152 77.4267 44.1763 77.4602C44.155 77.4347 44.1331 77.4088 44.1105 77.3823C44.1776 77.3816 44.2445 77.3812 44.3114 77.381ZM55.9787 78.2598C55.9336 78.2891 55.8953 78.3282 55.8655 78.3795C55.7924 78.3283 55.7196 78.2764 55.6474 78.2236C55.7617 78.2363 55.872 78.2483 55.9787 78.2598Z" fill="white"></path>
<path fill-rule="evenodd" clip-rule="evenodd" d="M133.943 202.604C133.89 202.34 133.837 202.076 133.582 201.935L133.583 201.942C133.546 201.924 133.511 201.906 133.476 201.887L133.462 201.883L133.459 201.878C133.154 201.716 132.908 201.532 132.801 201.161C132.321 199.478 131.359 197.916 130.458 196.474C130.156 196.01 129.917 195.518 129.679 195.028L129.679 195.028C129.3 194.249 128.922 193.472 128.295 192.809C128.042 192.555 127.996 192.213 127.949 191.865C127.93 191.718 127.91 191.57 127.874 191.427C127.246 189.642 126.491 187.893 125.738 186.151C125.123 184.726 124.509 183.305 123.969 181.873C123.743 181.272 123.591 180.65 123.438 180.025C123.223 179.15 123.007 178.267 122.587 177.426C121.519 175.29 120.906 173.033 120.296 170.784L120.296 170.784C120.048 169.869 119.8 168.956 119.522 168.052L116.818 159.219C116.758 158.979 116.728 158.739 116.698 158.498C116.668 158.258 116.638 158.018 116.578 157.777L116.574 157.757C116.515 157.461 116.448 157.126 116.037 157.537C116.276 156.459 116.092 155.408 115.905 154.348C115.811 153.812 115.717 153.275 115.676 152.73C115.616 151.648 115.857 150.987 116.758 150.747C117.625 150.573 118.047 151.179 118.453 151.76L118.501 151.829C118.725 152.143 118.748 152.525 118.771 152.899C118.778 153.025 118.786 153.15 118.801 153.271C119.031 154.231 119.311 155.166 119.592 156.108L119.592 156.109C119.751 156.641 119.911 157.175 120.063 157.717C120.073 157.747 120.081 157.779 120.09 157.811C120.131 157.969 120.173 158.128 120.423 158.078C120.624 158.027 120.615 157.851 120.607 157.689C120.605 157.658 120.604 157.626 120.604 157.597C120.604 156.724 120.447 155.89 120.292 155.064L120.292 155.063C120.255 154.866 120.218 154.669 120.183 154.472C119.943 153.391 119.883 152.369 120.003 151.288C120.063 150.987 119.943 150.747 119.762 150.446C118.981 149.125 118.501 147.622 118.38 146.12C118.343 145.822 118.167 145.755 117.996 145.69C117.891 145.65 117.788 145.611 117.719 145.519C117.719 145.339 117.9 145.219 118.02 145.219C119.162 145.099 120.303 145.159 121.385 145.339C121.382 145.353 121.38 145.368 121.377 145.382C121.39 145.378 121.402 145.374 121.415 145.37C121.46 145.355 121.505 145.34 121.565 145.34C121.566 145.341 121.568 145.342 121.57 145.344C121.585 145.26 121.635 145.219 121.685 145.219C122.466 145.579 123.247 145.399 123.908 145.039C124.329 144.858 124.69 144.858 125.05 144.858L125.05 144.858C125.238 144.717 125.426 144.687 125.643 144.651C125.703 144.641 125.766 144.631 125.831 144.618C126.619 144.386 127.299 143.905 127.983 143.421C128.186 143.277 128.389 143.133 128.595 142.996C128.625 143.056 128.67 143.131 128.715 143.206L128.716 143.206C128.761 143.281 128.806 143.356 128.836 143.416C128.774 143.465 128.705 143.502 128.631 143.533C128.715 143.53 128.803 143.531 128.895 143.537C130.16 144.197 131.224 145.209 132.271 146.206L132.271 146.206L132.272 146.207C132.369 146.299 132.465 146.39 132.561 146.481C132.595 146.515 132.633 146.547 132.671 146.579C132.835 146.715 132.996 146.85 132.801 147.142C132.741 147.263 132.741 147.383 132.861 147.383C133.751 147.464 134.26 148.062 134.772 148.664C135.021 148.956 135.271 149.25 135.565 149.486C136.578 150.311 137.403 151.3 138.231 152.292C138.73 152.889 139.229 153.488 139.771 154.053C140.733 155.074 141.754 156.216 142.475 157.538C143.334 159.084 144.531 160.354 145.737 161.633L145.737 161.633C146.218 162.143 146.7 162.655 147.162 163.186C147.973 164.086 148.817 164.919 149.669 165.76C149.955 166.042 150.241 166.325 150.527 166.611C151.188 167.212 151.789 167.873 152.33 168.594C152.66 169.014 152.991 169.45 153.321 169.886L153.321 169.886C153.652 170.321 153.982 170.757 154.313 171.178C155.241 172.329 155.986 173.594 156.731 174.862L156.731 174.862C157.192 175.645 157.653 176.429 158.158 177.186C158.743 178.031 159.24 178.928 159.734 179.821C160.155 180.58 160.573 181.336 161.043 182.054C161.727 183.148 162.177 184.34 162.627 185.529C162.967 186.43 163.306 187.328 163.747 188.183C164.016 188.695 164.31 189.196 164.607 189.7C164.971 190.32 165.338 190.945 165.669 191.608C166.03 192.329 166.27 193.11 166.33 193.951C166.511 195.333 166.691 196.715 166.991 198.037C167.381 199.707 166.997 201.222 166.604 202.774L166.604 202.774C166.573 202.897 166.542 203.021 166.511 203.144C166.39 203.655 166.195 204.136 166 204.617C165.805 205.097 165.609 205.578 165.489 206.089C165.369 206.81 164.888 207.471 164.408 207.951C164.089 208.27 163.797 208.621 163.503 208.975L163.503 208.975C162.909 209.689 162.307 210.413 161.463 210.896L161.463 210.896C161.343 210.956 161.223 211.016 161.163 211.136C159.824 212.882 157.921 212.881 156.001 212.879L155.815 212.879C155.726 212.879 155.635 212.877 155.541 212.875C155.064 212.867 154.544 212.858 154.193 213.059C152.239 214.009 150.285 213.614 148.331 213.219C148.062 213.164 147.792 213.11 147.523 213.059C145.6 212.698 143.797 211.857 142.055 211.016C140.673 210.415 139.411 209.634 138.269 208.612C138.062 208.431 137.933 208.194 137.805 207.958C137.636 207.648 137.469 207.341 137.128 207.17C136.986 207.009 136.825 206.868 136.665 206.729C136.351 206.454 136.045 206.187 135.926 205.788C135.85 205.662 135.711 205.6 135.575 205.539C135.387 205.454 135.205 205.372 135.205 205.127C135.128 204.973 135.026 204.844 134.931 204.723C134.878 204.656 134.827 204.591 134.784 204.526C134.424 204.226 134.183 203.866 134.183 203.385C134.089 203.166 134.061 203.012 134.038 202.89C134.017 202.777 134.001 202.69 133.943 202.604ZM126.733 152.67C126.762 152.65 126.792 152.635 126.821 152.625C126.768 152.65 126.718 152.685 126.672 152.731L126.663 152.738C126.68 152.714 126.703 152.692 126.733 152.67ZM126.655 162.615C126.646 162.615 126.637 162.615 126.627 162.615C126.636 162.615 126.646 162.615 126.655 162.615Z" fill="white"></path>
</svg><style>@media (prefers-color-scheme: light) { :root { filter: none; } }
</style></svg>