<svg width="70" height="70" viewBox="0 0 70 70" fill="none" xmlns="http://www.w3.org/2000/svg">
<path fill-rule="evenodd" clip-rule="evenodd" d="M1.60614 38.8881C1.34715 37.6741 0.792459 36.5496 0.189131 35.477C-0.171054 34.1323 0.0538671 32.8292 0.280939 31.5137C0.40333 30.8046 0.526346 30.0919 0.558702 29.3671C0.0967663 28.8744 0.189142 28.2831 0.373917 27.6918C0.820377 26.5607 1.06456 25.3578 1.31012 24.1481C1.47107 23.3551 1.63261 22.5593 1.85209 21.7789C2.07139 21.2931 2.28761 20.8073 2.50356 20.322C3.47028 18.1499 4.43175 15.9895 5.64 13.8951C5.67555 13.8288 5.71109 13.7606 5.74713 13.6915C6.08575 13.042 6.46798 12.3089 7.30296 12.2198C8.74801 10.4104 10.6203 9.23895 12.5131 8.05473C13.4036 7.49758 14.2987 6.93759 15.1559 6.30699C15.2483 6.25772 15.3406 6.18382 15.433 6.10992C15.5254 6.03601 15.6178 5.96211 15.7102 5.91284C16.2645 5.51865 16.9113 5.12441 17.6503 5.12441C17.8697 5.12441 18.0312 5.06271 18.2264 4.98812C18.2778 4.96847 18.3316 4.94792 18.3894 4.92737C19.21 3.97914 20.233 3.46279 21.2712 2.9388C21.6357 2.75484 22.002 2.56995 22.3621 2.3651C22.7169 1.9326 23.2107 1.79668 23.6909 1.66448C24.0861 1.5557 24.4722 1.44943 24.7641 1.18252C26.6119 1.51101 28.4596 1.22633 30.3074 0.941639C31.2313 0.799298 32.1551 0.656957 33.079 0.59126C33.3695 0.569125 33.6647 0.556935 33.9624 0.544639C34.9903 0.50219 36.0488 0.458477 37.0517 0C38.8994 0.591284 40.8395 1.084 42.7796 1.084C43.4891 0.671198 44.1086 0.930857 44.7322 1.1923C45.0019 1.30534 45.2724 1.41871 45.5513 1.47821C46.0261 1.90033 46.5688 1.88847 47.1212 1.87641C47.2136 1.87439 47.3063 1.87236 47.399 1.87236C50.0782 2.06946 52.1108 3.54768 53.9585 5.51863C56.1758 7.39102 58.3008 9.2634 60.1485 11.53C60.3073 12.0382 60.6708 12.1824 61.0632 12.3381C61.1273 12.3635 61.1922 12.3892 61.2571 12.4169C63.0125 13.0082 64.7678 13.7966 65.3222 15.9646C65.3807 16.1519 65.5504 16.2601 65.7139 16.3643C65.8086 16.4247 65.9011 16.4837 65.9689 16.5559C66.0892 16.6843 66.2104 16.8116 66.3315 16.9387C67.4188 18.0809 68.4911 19.2071 68.7405 20.892C68.6481 21.3847 68.8329 21.8775 69.11 22.2717C69.2024 22.8137 69.341 23.3557 69.4796 23.8977C69.6182 24.4397 69.7568 24.9817 69.8492 25.5237C70.0339 26.4106 70.2187 27.2976 69.2948 27.8889C69.2761 27.8871 69.2578 27.885 69.2398 27.8826C69.2397 28.4116 69.202 28.9448 69.1643 29.4788C69.0863 30.5811 69.0082 31.6862 69.2603 32.7618C69.2372 32.8604 69.2026 32.9589 69.1679 33.0575C69.064 33.3531 68.9601 33.6488 69.168 33.9444C68.9832 35.3241 68.8908 36.7037 68.8908 38.1819C68.8908 38.9538 68.6225 39.6541 68.3486 40.3691C68.1679 40.8408 67.9847 41.3189 67.8745 41.8282C67.3202 42.9122 66.9507 43.9962 66.8583 45.1788C66.8583 45.2773 66.8583 45.3759 66.7659 45.3759C66.5349 46.0164 66.3502 46.7063 66.1654 47.3961C65.9806 48.0859 65.7958 48.7757 65.5648 49.4163C65.5052 50.307 65.2915 50.6227 64.9487 50.655C65.0872 50.8154 65.1497 51.056 65.1053 51.3879C65.0398 52.3652 64.6499 53.1942 64.2638 54.0149C64.1049 54.3528 63.9466 54.6893 63.8119 55.0342C63.4727 55.2754 63.3411 55.6641 63.2053 56.065C63.1192 56.3193 63.0314 56.5785 62.888 56.808C62.7066 57.0015 62.5251 57.2056 62.3405 57.4134C61.9609 57.8403 61.5676 58.2827 61.1326 58.6804C60.8555 59.1732 60.4859 59.5673 60.1164 59.9615C60.0209 60.0124 59.9316 60.0633 59.8453 60.1126C59.5975 60.2539 59.3742 60.3812 59.1001 60.4543C58.6919 60.4543 58.4677 60.7291 58.2418 61.0062C58.1097 61.168 57.9771 61.3307 57.8067 61.4397C57.7605 61.489 57.6912 61.5136 57.622 61.5383C57.5527 61.5629 57.4833 61.5876 57.4371 61.6368C57.3909 61.6368 57.3678 61.6122 57.3447 61.5876C57.3216 61.563 57.2985 61.5383 57.2523 61.5383C57.0561 61.3289 56.9525 61.0701 56.9744 60.7619C56.9066 60.8372 56.8686 60.9361 56.8319 61.0317C56.7799 61.1669 56.7306 61.2953 56.6033 61.3406C56.5442 61.3721 56.4852 61.3834 56.4261 61.3875C56.5873 61.6115 56.7247 61.8028 56.4187 62.1291C56.4783 62.7008 56.1157 62.904 55.7514 63.1081C55.5505 63.2208 55.3491 63.3337 55.2177 63.5088C54.6721 63.7539 54.1444 64.056 53.615 64.3591C52.4414 65.0311 51.26 65.7075 49.8592 65.7754C48.8463 65.8354 48.0734 66.3341 47.3107 66.8262C46.8212 67.1421 46.3359 67.4551 45.7942 67.6478C44.9891 67.934 44.2152 68.2536 43.4543 68.5677C42.9056 68.7943 42.3634 69.0181 41.8215 69.2246C41.6368 68.9289 41.452 68.7318 41.0824 68.8303C38.8651 69.9144 36.4631 70.013 34.061 69.9144C32.6779 70.1603 31.4026 69.831 30.123 69.5006C29.3513 69.3013 28.5781 69.1016 27.7787 69.0275C27.5939 69.0275 27.3167 69.0275 27.1319 68.9289C25.7462 68.3869 24.499 67.5493 23.2518 66.7117C22.0045 65.874 20.7572 65.0363 19.3714 64.4943C18.7247 64.2972 18.2627 63.7059 17.9856 63.1146C17.9798 63.1023 17.9744 63.0904 17.9694 63.0788C17.966 63.071 17.9627 63.0633 17.9596 63.0558C17.7833 63.3117 17.6031 63.3073 17.3389 63.2133C17.2465 63.0163 17.2465 63.0163 17.1541 63.1148C16.2059 63.1148 15.3793 62.6737 14.5496 62.2308C13.7624 61.8106 12.9723 61.389 12.0728 61.341C11.1489 60.3555 10.2481 59.3454 9.34733 58.3353C8.44662 57.3252 7.54569 56.315 6.62189 55.3296C6.62189 54.5412 6.34474 53.9499 5.88281 53.2601C4.00238 50.4337 2.99181 47.27 1.97317 44.081C1.89078 43.823 1.80834 43.5649 1.72538 43.3068C1.72538 43.2083 1.81773 43.0113 1.9101 42.8142C1.26339 41.5331 1.2633 40.2514 1.54046 38.9703C1.56267 38.9432 1.58454 38.9158 1.60614 38.8881ZM17.9074 62.6863C17.918 62.7027 17.9285 62.7196 17.9389 62.7369C17.9424 62.7263 17.9462 62.7154 17.9504 62.7042C17.9362 62.698 17.9219 62.6921 17.9074 62.6863Z" fill="#E7D000"/>
</svg>
