<svg width="40" height="40" viewBox="0 0 40 40" fill="none" xmlns="http://www.w3.org/2000/svg">
<path d="M35.6338 30.0003H31.911C30.5031 30.0003 30.079 28.8712 27.5553 26.3707C25.3497 24.2659 24.4182 24.0042 23.8602 24.0042C23.0886 24.0042 22.8782 24.2142 22.8782 25.2658V28.5805C22.8782 29.477 22.5845 30.002 20.219 30.002C17.9242 29.8493 15.6988 29.159 13.7262 27.9879C11.7535 26.8168 10.0901 25.1984 8.87291 23.266C5.98276 19.7042 3.97181 15.5239 3 11.0573C3 10.5049 3.21208 10.0041 4.27573 10.0041H7.99523C8.95121 10.0041 9.29543 10.4257 9.67064 11.3998C11.4766 16.6625 14.5582 21.2404 15.8095 21.2404C16.2891 21.2404 16.4979 21.0304 16.4979 19.8464V14.4253C16.3397 11.9522 15.0134 11.7439 15.0134 10.849C15.0301 10.6129 15.1392 10.3925 15.3174 10.2348C15.4956 10.0771 15.7289 9.99431 15.9677 10.0041H21.8145C22.6139 10.0041 22.8782 10.3983 22.8782 11.3449V18.6623C22.8782 19.4522 23.2207 19.7139 23.4622 19.7139C23.9418 19.7139 24.3105 19.4522 25.1898 18.5832C27.0746 16.3071 28.6145 13.7714 29.7609 11.0557C29.8782 10.7297 30.1 10.4506 30.3925 10.261C30.685 10.0714 31.0321 9.9818 31.3808 10.0058H35.102C36.2178 10.0058 36.4543 10.5582 36.2178 11.3465C34.8644 14.3484 33.1897 17.198 31.2226 19.8464C30.8213 20.4521 30.6614 20.7671 31.2226 21.4778C31.5913 22.0303 32.8964 23.1093 33.7724 24.1351C35.0481 25.395 36.1069 26.8521 36.9079 28.448C37.2276 29.4754 36.6958 30.0003 35.6338 30.0003Z" fill="#506C46"/>
</svg>
