<svg width="70" height="70" viewBox="0 0 70 70" fill="none" xmlns="http://www.w3.org/2000/svg">
<mask id="path-1-inside-1_204_38502" fill="white">
<path d="M1.00216 39C1.00216 39 0.79417 36.5496 0.189539 35.477C-0.171423 34.1323 0.0539834 32.8292 0.281545 31.5137C0.404201 30.8046 0.527483 30.0919 0.559909 29.3671C0.0969753 28.8744 0.189551 28.2831 0.374724 27.6918C0.822149 26.5607 1.06686 25.3578 1.31295 24.1481C1.47425 23.3551 1.63614 22.5593 1.85609 21.7789C2.07583 21.2932 2.29248 20.8074 2.50886 20.3223L2.50896 20.322C3.47777 18.1499 4.50113 15.8767 5.71199 13.7824L5.75954 13.6915C5.75954 13.6915 5.74761 13.716 5.71199 13.7824C5.71199 13.7824 10.6433 9.23895 12.5401 8.05473C13.4326 7.49758 14.3295 6.93759 15.1886 6.30699C15.2812 6.25772 15.3738 6.18382 15.4664 6.10992C15.5589 6.03601 15.6515 5.96211 15.7441 5.91284C16.2996 5.51865 16.9478 5.12441 17.6885 5.12441C17.9083 5.12441 18.0701 5.06271 18.2658 4.98812C18.3173 4.96847 18.3712 4.94792 18.4291 4.92737C19.2515 3.97914 20.2767 3.46279 21.3171 2.9388C21.6824 2.75484 22.0495 2.56995 22.4104 2.3651C22.7659 1.9326 23.2608 1.79668 23.7421 1.66448C24.1382 1.5557 24.525 1.44943 24.8176 1.18252C26.6693 1.51101 28.5211 1.22633 30.3728 0.941639C31.2987 0.799298 32.2246 0.656957 33.1504 0.59126C33.4416 0.569125 33.7374 0.556935 34.0358 0.544639C35.0658 0.50219 36.1266 0.458477 37.1317 0C38.9834 0.591284 40.9277 1.084 42.872 1.084C43.583 0.671198 44.2038 0.930857 44.8288 1.1923C45.0991 1.30534 45.3701 1.41871 45.6496 1.47821C46.1255 1.90033 46.6694 1.88847 47.223 1.87641C47.3156 1.87439 47.4085 1.87236 47.5014 1.87236C50.1864 2.06946 52.2233 3.54768 54.0751 5.51863C56.2971 7.39102 58.4267 9.2634 60.2784 11.53C60.4375 12.0382 60.8019 12.1824 61.195 12.3381L61.1951 12.3381C61.2594 12.3635 61.3244 12.3893 61.3894 12.4169C63.1485 13.0082 64.9077 13.7966 65.4632 15.9646C65.5219 16.1519 65.692 16.2601 65.8558 16.3643C65.9507 16.4247 66.0435 16.4837 66.1113 16.5559C66.2312 16.6835 66.352 16.8101 66.4726 16.9365L66.4747 16.9387C67.5644 18.0809 68.639 19.2071 68.8889 20.892C68.7964 21.3847 68.9815 21.8775 69.2593 22.2717C69.3519 22.8137 69.4907 23.3557 69.6296 23.8977C69.7685 24.4397 69.9074 24.9817 70 25.5237L69.4444 27.8889C69.4443 28.4179 69.3514 28.9448 69.3136 29.4788C69.2355 30.5811 69.1572 31.6861 69.4099 32.7618C69.3867 32.8604 69.352 32.9589 69.3173 33.0575C69.2132 33.3531 69.109 33.6488 69.3173 33.9444C69.1321 35.3241 69.0396 36.7037 69.0396 38.1819C69.0396 38.9538 68.7707 39.6541 68.4962 40.3691C68.3151 40.8408 68.1315 41.3189 68.0211 41.8282C67.4656 42.9122 67.0952 43.9962 67.0026 45.1788C67.0026 45.2773 67.0026 45.3759 66.9101 45.3759C66.6786 46.0164 66.4934 46.7063 66.3083 47.3961C66.1231 48.0859 65.9379 48.7757 65.7064 49.4163L65.2459 51.3879C65.2459 51.3879 64.7895 53.1942 64.4026 54.0149C64.2433 54.3528 64.0847 54.6893 63.9497 55.0342C63.6098 55.2754 63.4778 55.6641 63.3418 56.065L63.3418 56.0651C63.2555 56.3194 63.1675 56.5785 63.0238 56.808C62.8422 57.0013 62.6606 57.2052 62.4757 57.4127L62.4751 57.4134L62.475 57.4135C62.0947 57.8403 61.7005 58.2828 61.2646 58.6804C60.9869 59.1732 60.6166 59.5673 60.2462 59.9615C60.1506 60.0124 60.0611 60.0633 59.9746 60.1125L59.9746 60.1126C59.7262 60.2539 59.5024 60.3812 59.2277 60.4543C58.8186 60.4543 58.594 60.7291 58.3675 61.0062C58.2352 61.168 58.1023 61.3307 57.9315 61.4397C57.8853 61.489 57.8158 61.5136 57.7464 61.5383C57.6769 61.5629 57.6075 61.5876 57.5612 61.6368C57.5149 61.6368 57.4917 61.6122 57.4686 61.5876C57.4454 61.563 57.4223 61.5383 57.376 61.5383C57.376 61.5383 56.8472 61.8028 56.5406 62.1291C56.6002 62.7008 56.2369 62.904 55.8718 63.1081C55.6705 63.2208 55.4686 63.3337 55.3369 63.5088C54.7902 63.7539 54.2613 64.056 53.7308 64.3591C52.5546 65.0311 51.3707 65.7075 49.9669 65.7754C48.9518 65.8354 48.1772 66.3341 47.4129 66.8262C46.9223 67.1421 46.436 67.4551 45.8931 67.6478C45.0863 67.934 44.3107 68.2535 43.5483 68.5676L43.5481 68.5677C42.9983 68.7943 42.4549 69.0181 41.9119 69.2246C41.7267 68.9289 41.5415 68.7318 41.1711 68.8303C38.949 69.9144 36.5418 70.013 34.1345 69.9144C32.7484 70.1603 31.4704 69.831 30.188 69.5006C29.4147 69.3013 28.6398 69.1016 27.8387 69.0275C27.6535 69.0275 27.3757 69.0275 27.1905 68.9289C25.8018 68.3869 24.5519 67.5493 23.302 66.7117L23.302 66.7117L23.3019 66.7116C22.052 65.874 20.802 65.0363 19.4132 64.4943C18.7651 64.2972 17.1911 63.1148 17.1911 63.1148C17.1911 63.1148 15.4126 62.6737 14.581 62.2308C13.7921 61.8106 13.0003 61.389 12.0988 61.341C11.173 60.3555 10.2703 59.3454 9.36757 58.3353L9.36751 58.3353L9.36742 58.3352C8.46479 57.3252 7.56196 56.3149 6.63619 55.3296C6.63619 54.5412 6.35845 53.9499 5.89551 53.2601C4.01102 50.4337 2.99827 47.27 1.97743 44.081C1.89486 43.823 1.72911 43.3068 1.72911 43.3068L1.00216 39Z"/>
</mask>
<path d="M0.189539 35.477L-1.74208 35.9955L-1.67665 36.2393L-1.55271 36.4592L0.189539 35.477ZM1.00216 39L-0.990674 39.1692L-0.98369 39.2514L-0.969945 39.3329L1.00216 39ZM0.281545 31.5137L2.25228 31.8546V31.8546L0.281545 31.5137ZM0.559909 29.3671L2.55791 29.4565L2.59565 28.613L2.01751 27.9976L0.559909 29.3671ZM0.374724 27.6918L-1.48505 26.9561L-1.51198 27.0242L-1.53387 27.0941L0.374724 27.6918ZM1.31295 24.1481L3.27281 24.5467L1.31295 24.1481ZM1.85609 21.7789L0.0338607 20.9546L-0.028115 21.0916L-0.0689082 21.2364L1.85609 21.7789ZM2.50896 20.322L4.3346 21.1388L4.33552 21.1367L2.50896 20.322ZM2.50886 20.3223L0.683227 19.5055L0.682303 19.5076L2.50886 20.3223ZM5.75954 13.6915L7.55766 14.5672L3.98758 12.7641L5.75954 13.6915ZM12.5401 8.05473L11.481 6.3582H11.481L12.5401 8.05473ZM15.1886 6.30699L14.249 4.54145L14.1215 4.60929L14.0051 4.69474L15.1886 6.30699ZM15.4664 6.10992L14.2187 4.54683L14.2186 4.54684L15.4664 6.10992ZM15.7441 5.91284L16.6837 7.67838L16.7969 7.61814L16.9015 7.54392L15.7441 5.91284ZM18.2658 4.98812L17.5533 3.11934L17.5533 3.11934L18.2658 4.98812ZM18.4291 4.92737L19.0979 6.81225L19.5947 6.63598L19.9401 6.23773L18.4291 4.92737ZM21.3171 2.9388L20.4175 1.15255L20.4175 1.15255L21.3171 2.9388ZM22.4104 2.3651L23.3977 4.1044L23.72 3.92145L23.9553 3.63518L22.4104 2.3651ZM23.7421 1.66448L24.2718 3.59305L24.2718 3.59305L23.7421 1.66448ZM24.8176 1.18252L25.1669 -0.786735L24.1972 -0.95876L23.4696 -0.294983L24.8176 1.18252ZM30.3728 0.941639L30.0689 -1.03514V-1.03514L30.3728 0.941639ZM33.1504 0.59126L33.292 2.58627L33.302 2.5855L33.1504 0.59126ZM34.0358 0.544639L34.1181 2.54294L34.0358 0.544639ZM37.1317 0L37.7401 -1.90523L37.0043 -2.14016L36.3017 -1.81962L37.1317 0ZM42.872 1.084V3.084H43.4105L43.8762 2.81363L42.872 1.084ZM44.8288 1.1923L45.6006 -0.652792L45.6006 -0.652793L44.8288 1.1923ZM45.6496 1.47821L46.9768 -0.0180297L46.5821 -0.368112L46.066 -0.477959L45.6496 1.47821ZM47.223 1.87641L47.1794 -0.123118V-0.123118L47.223 1.87641ZM47.5014 1.87236L47.6478 -0.12227L47.5747 -0.127637H47.5014V1.87236ZM54.0751 5.51863L52.6175 6.88807L52.6972 6.97298L52.7863 7.04805L54.0751 5.51863ZM60.2784 11.53L62.187 10.9323L62.0716 10.5637L61.8272 10.2646L60.2784 11.53ZM61.195 12.3381L60.4589 14.1977L60.4637 14.1996L61.195 12.3381ZM61.3894 12.4169L60.6059 14.2571L60.6779 14.2878L60.7522 14.3127L61.3894 12.4169ZM61.1951 12.3381L61.9313 10.4785L61.9264 10.4766L61.1951 12.3381ZM65.4632 15.9646L63.5258 16.461L63.5389 16.5121L63.5546 16.5624L65.4632 15.9646ZM65.8558 16.3643L66.9293 14.6768L66.9293 14.6768L65.8558 16.3643ZM66.1113 16.5559L64.6537 17.9253L64.6537 17.9254L66.1113 16.5559ZM66.4747 16.9387L65.0271 18.3188L65.0277 18.3194L66.4747 16.9387ZM66.4726 16.9365L67.9202 15.5565L67.9197 15.556L66.4726 16.9365ZM68.8889 20.892L70.8545 21.2613L70.9166 20.931L70.8673 20.5985L68.8889 20.892ZM69.2593 22.2717L71.2307 21.9349L71.1546 21.4892L70.8942 21.1197L69.2593 22.2717ZM69.6296 23.8977L67.6922 24.3941L67.6922 24.3942L69.6296 23.8977ZM70 25.5237L71.947 25.9811L72.0397 25.5865L71.9714 25.1869L70 25.5237ZM69.4444 27.8889L67.4974 27.4315L67.4445 27.6569L67.4444 27.8884L69.4444 27.8889ZM69.3136 29.4788L71.3086 29.6201V29.6201L69.3136 29.4788ZM69.4099 32.7618L71.3569 33.2192L71.4643 32.7619L71.3569 32.3045L69.4099 32.7618ZM69.3173 33.0575L71.2037 33.7221L71.2037 33.722L69.3173 33.0575ZM69.3173 33.9444L71.2995 34.2105L71.4039 33.4333L70.9522 32.7924L69.3173 33.9444ZM68.4962 40.3691L70.3633 41.086V41.0859L68.4962 40.3691ZM68.0211 41.8282L69.801 42.7403L69.9203 42.5076L69.9757 42.252L68.0211 41.8282ZM67.0026 45.1788L65.0088 45.0227L65.0026 45.1006V45.1788H67.0026ZM66.9101 45.3759V43.3759H65.5062L65.0291 44.6962L66.9101 45.3759ZM66.3083 47.3961L68.2399 47.9146V47.9146L66.3083 47.3961ZM65.7064 49.4163L63.8255 48.7366L63.7855 48.847L63.7588 48.9613L65.7064 49.4163ZM65.2459 51.3879L67.1849 51.8778L67.1893 51.8604L67.1934 51.8428L65.2459 51.3879ZM64.4026 54.0149L62.5935 53.1621L62.5935 53.1621L64.4026 54.0149ZM63.9497 55.0342L65.1071 56.6653L65.5943 56.3195L65.8121 55.7632L63.9497 55.0342ZM63.3418 56.065L61.4479 55.4223L61.4322 55.4686L61.4188 55.5156L63.3418 56.065ZM63.0238 56.808L64.4814 58.1775L64.6151 58.0351L64.7188 57.8696L63.0238 56.808ZM63.3418 56.0651L65.2357 56.7078L65.2514 56.6615L65.2648 56.6146L63.3418 56.0651ZM62.4751 57.4134L63.9699 58.7421L63.9712 58.7406L62.4751 57.4134ZM62.4757 57.4127L60.9824 56.0822L60.9796 56.0854L62.4757 57.4127ZM61.2646 58.6804L59.9167 57.2029L59.6798 57.419L59.5224 57.6983L61.2646 58.6804ZM62.475 57.4135L63.9683 58.7439L63.9698 58.7422L62.475 57.4135ZM60.2462 59.9615L61.1857 61.7271L61.4775 61.5718L61.7038 61.331L60.2462 59.9615ZM59.9746 60.1126L60.9636 61.8509L61.0251 61.8159L61.084 61.7767L59.9746 60.1126ZM59.9746 60.1125L58.9856 58.3742L58.9241 58.4092L58.8652 58.4484L59.9746 60.1125ZM59.2277 60.4543V62.4543H59.4893L59.742 62.387L59.2277 60.4543ZM58.3675 61.0062L56.819 59.7404L56.819 59.7405L58.3675 61.0062ZM57.9315 61.4397L56.8551 59.7542L56.6448 59.8885L56.4739 60.0703L57.9315 61.4397ZM57.7464 61.5383L58.4151 63.4232L58.4151 63.4232L57.7464 61.5383ZM57.5612 61.6368V63.6368H58.4264L59.0188 63.0062L57.5612 61.6368ZM57.376 61.5383V59.5383H56.9038L56.4814 59.7495L57.376 61.5383ZM56.5406 62.1291L55.083 60.7597L54.4564 61.4266L54.5514 62.3368L56.5406 62.1291ZM55.8718 63.1081L54.8956 61.3626L54.8956 61.3626L55.8718 63.1081ZM55.3369 63.5088L56.1549 65.3339L56.6257 65.1229L56.9357 64.7105L55.3369 63.5088ZM53.7308 64.3591L54.7229 66.0957H54.7229L53.7308 64.3591ZM49.9669 65.7754L49.8702 63.7777L49.8595 63.7783L49.8488 63.7789L49.9669 65.7754ZM47.4129 66.8262L48.4955 68.5079H48.4955L47.4129 66.8262ZM45.8931 67.6478L45.2243 65.7629H45.2243L45.8931 67.6478ZM43.5481 68.5677L44.31 70.4169L44.3485 70.4011L44.3863 70.3836L43.5481 68.5677ZM43.5483 68.5676L42.7864 66.7184L42.748 66.7343L42.7102 66.7517L43.5483 68.5676ZM41.9119 69.2246L40.2169 70.2862L41.0882 71.6773L42.6225 71.094L41.9119 69.2246ZM41.1711 68.8303L40.6568 66.8976L40.4689 66.9476L40.2942 67.0328L41.1711 68.8303ZM34.1345 69.9144L34.2164 67.9161L33.9992 67.9072L33.7852 67.9452L34.1345 69.9144ZM30.188 69.5006L29.689 71.4373H29.689L30.188 69.5006ZM27.8387 69.0275L28.023 67.036L27.931 67.0275H27.8387V69.0275ZM27.1905 68.9289L28.1302 67.1634L28.0268 67.1084L27.9177 67.0658L27.1905 68.9289ZM23.302 66.7117L24.4783 65.0942L24.4253 65.0557L24.3699 65.0207L23.302 66.7117ZM23.302 66.7117L22.1257 68.3292L22.1567 68.3518L22.1886 68.3732L23.302 66.7117ZM19.4132 64.4943L20.1404 62.6312L20.0687 62.6032L19.9951 62.5808L19.4132 64.4943ZM23.3019 66.7116L22.1884 68.373L22.211 68.3881L22.2339 68.4026L23.3019 66.7116ZM17.1911 63.1148L18.3923 61.5157L18.0672 61.2715L17.6726 61.1736L17.1911 63.1148ZM14.581 62.2308L13.6409 63.9961L13.6409 63.9961L14.581 62.2308ZM12.0988 61.341L10.6412 62.7104L11.1909 63.2955L11.9926 63.3382L12.0988 61.341ZM9.36751 58.3353L10.904 57.0549L10.8737 57.0186L10.8418 56.9838L9.36751 58.3353ZM9.36757 58.3353L7.83113 59.6157L7.85327 59.6423L7.87631 59.6681L9.36757 58.3353ZM6.63619 55.3296H4.63619V56.1217L5.17859 56.699L6.63619 55.3296ZM9.36742 58.3352L7.87616 59.6679L7.88457 59.6773L7.89311 59.6866L9.36742 58.3352ZM5.89551 53.2601L4.23147 54.3696L4.2348 54.3746L5.89551 53.2601ZM1.97743 44.081L0.0726399 44.6907L0.0726412 44.6907L1.97743 44.081ZM1.72911 43.3068L-0.242999 43.6397L-0.219074 43.7815L-0.175124 43.9183L1.72911 43.3068ZM-1.55271 36.4592C-1.44005 36.659 -1.27806 37.2213 -1.14884 37.9776C-1.09241 38.3079 -1.05218 38.6119 -1.02614 38.8336C-1.0132 38.9438 -1.00398 39.0318 -0.998151 39.0904C-0.995241 39.1197 -0.99319 39.1415 -0.991956 39.155C-0.991339 39.1617 -0.990927 39.1663 -0.990715 39.1687C-0.990609 39.1699 -0.990553 39.1706 -0.990546 39.1707C-0.990543 39.1707 -0.990552 39.1706 -0.990574 39.1703C-0.990584 39.1702 -0.990598 39.1701 -0.990615 39.1699C-0.990623 39.1698 -0.990638 39.1696 -0.990642 39.1695C-0.990658 39.1693 -0.990674 39.1692 1.00216 39C2.99499 38.8308 2.99498 38.8306 2.99496 38.8304C2.99495 38.8303 2.99493 38.8301 2.99491 38.8299C2.99489 38.8296 2.99485 38.8292 2.99482 38.8288C2.99474 38.8279 2.99466 38.8269 2.99456 38.8258C2.99436 38.8235 2.99411 38.8206 2.9938 38.8171C2.99319 38.8102 2.99236 38.8009 2.99131 38.7895C2.9892 38.7665 2.98619 38.7346 2.98223 38.6948C2.97433 38.6152 2.96257 38.5034 2.94656 38.3671C2.91472 38.0959 2.86515 37.7202 2.79402 37.3039C2.66808 36.5669 2.42376 35.3676 1.93179 34.4949L-1.55271 36.4592ZM-1.68919 31.1728C-1.90532 32.4223 -2.23501 34.1592 -1.74208 35.9955L2.12116 34.9585C1.89216 34.1054 2.01329 33.2362 2.25228 31.8546L-1.68919 31.1728ZM-1.43809 29.2777C-1.46392 29.8549 -1.56297 30.4431 -1.68919 31.1728L2.25228 31.8546C2.37137 31.1661 2.51888 30.3289 2.55791 29.4565L-1.43809 29.2777ZM-1.53387 27.0941C-1.73865 27.748 -2.18164 29.3699 -0.897696 30.7365L2.01751 27.9976C2.06607 28.0493 2.12388 28.1309 2.16686 28.2385C2.20875 28.3433 2.22047 28.4324 2.22261 28.4847C2.22453 28.5317 2.21855 28.5429 2.22604 28.503C2.23368 28.4624 2.24988 28.3963 2.28332 28.2895L-1.53387 27.0941ZM-0.646912 23.7494C-0.899281 24.99 -1.11355 26.017 -1.48505 26.9561L2.23449 28.4275C2.75785 27.1045 3.033 25.7256 3.27281 24.5467L-0.646912 23.7494ZM-0.0689082 21.2364C-0.312308 22.0999 -0.488087 22.9686 -0.646912 23.7494L3.27281 24.5467C3.43658 23.7416 3.58458 23.0187 3.78109 22.3215L-0.0689082 21.2364ZM0.683325 19.5053L0.683228 19.5055L4.3345 21.139L4.3346 21.1388L0.683325 19.5053ZM0.682303 19.5076C0.465565 19.9936 0.251058 20.4745 0.0338607 20.9546L3.67832 22.6032C3.9006 22.1119 4.1194 21.6213 4.33543 21.1369L0.682303 19.5076ZM3.98054 12.7813C2.70952 14.9797 1.64645 17.3459 0.6824 19.5074L4.33552 21.1367C5.3091 18.9538 6.29273 16.7737 7.44343 14.7834L3.98054 12.7813ZM5.75954 13.6915C3.96141 12.8159 3.96146 12.8158 3.96151 12.8157C3.96152 12.8156 3.96157 12.8155 3.9616 12.8155C3.96166 12.8154 3.96172 12.8152 3.96179 12.8151C3.96191 12.8148 3.96203 12.8146 3.96215 12.8144C3.96239 12.8139 3.96263 12.8134 3.96286 12.8129C3.96332 12.812 3.96377 12.811 3.9642 12.8102C3.96506 12.8084 3.96585 12.8068 3.96658 12.8053C3.96802 12.8024 3.96918 12.8001 3.97005 12.7984C3.97176 12.795 3.97234 12.7939 3.97155 12.7954C3.96991 12.7986 3.96325 12.8114 3.94987 12.8363L7.4741 14.7284C7.49634 14.687 7.51346 14.6544 7.52669 14.6287C7.53333 14.6158 7.53912 14.6044 7.54419 14.5944C7.54672 14.5893 7.5491 14.5845 7.55133 14.58C7.55245 14.5778 7.55353 14.5756 7.55459 14.5734C7.55511 14.5724 7.55563 14.5713 7.55614 14.5703C7.5564 14.5697 7.55665 14.5692 7.55691 14.5687C7.55703 14.5684 7.55716 14.5682 7.55728 14.5679C7.55735 14.5678 7.55741 14.5677 7.55747 14.5675C7.5575 14.5675 7.55755 14.5674 7.55756 14.5673C7.55761 14.5673 7.55766 14.5672 5.75954 13.6915ZM7.48394 14.7098L7.53149 14.619L3.98758 12.7641L3.94003 12.8549L7.48394 14.7098ZM11.481 6.3582C10.3693 7.05222 8.53508 8.60204 7.09906 9.8563C6.3533 10.5077 5.66891 11.1204 5.17138 11.5699C4.92239 11.7949 4.71964 11.9794 4.57875 12.1081C4.5083 12.1725 4.45328 12.2229 4.41564 12.2574C4.39683 12.2747 4.38235 12.288 4.37246 12.2971C4.36752 12.3016 4.36372 12.3051 4.3611 12.3075C4.35979 12.3087 4.35877 12.3097 4.35806 12.3103C4.3577 12.3107 4.35741 12.3109 4.3572 12.3111C4.3571 12.3112 4.357 12.3113 4.35695 12.3113C4.35686 12.3114 4.3568 12.3115 5.71199 13.7824C7.06717 15.2532 7.06714 15.2533 7.06714 15.2533C7.06716 15.2532 7.06717 15.2532 7.06722 15.2532C7.06731 15.2531 7.06747 15.253 7.06771 15.2527C7.06819 15.2523 7.06896 15.2516 7.07003 15.2506C7.07217 15.2486 7.07547 15.2456 7.07992 15.2415C7.0888 15.2333 7.10225 15.221 7.12001 15.2047C7.15554 15.1721 7.20832 15.1237 7.27641 15.0615C7.41261 14.9371 7.60994 14.7575 7.85289 14.538C8.33925 14.0986 9.00623 13.5015 9.7304 12.869C11.2342 11.5555 12.8141 10.2415 13.5993 9.75126L11.481 6.3582ZM14.0051 4.69474C13.2166 5.27356 12.3836 5.79468 11.481 6.3582L13.5993 9.75126C14.4815 9.20049 15.4425 8.60163 16.3721 7.91925L14.0051 4.69474ZM14.2186 4.54684C14.2067 4.55634 14.1972 4.56399 14.1879 4.57133C14.1789 4.57851 14.1716 4.58428 14.1653 4.58918C14.159 4.59406 14.1545 4.59757 14.1512 4.60006C14.1496 4.60129 14.1484 4.60218 14.1476 4.60279C14.1468 4.60339 14.1464 4.60366 14.1464 4.60364C14.1465 4.60362 14.147 4.60326 14.1479 4.6026C14.1488 4.60194 14.1502 4.60093 14.1521 4.59962C14.1558 4.59706 14.1618 4.593 14.1697 4.58783C14.1851 4.57788 14.212 4.56115 14.249 4.54145L16.1282 8.07254C16.4161 7.91932 16.6592 7.71681 16.7141 7.67299L14.2186 4.54684ZM14.8045 4.14729C14.5166 4.30051 14.2735 4.50301 14.2187 4.54683L16.7141 7.673C16.726 7.6635 16.7356 7.65585 16.7448 7.64851C16.7538 7.64133 16.7612 7.63556 16.7674 7.63065C16.7737 7.62578 16.7782 7.62227 16.7815 7.61977C16.7831 7.61855 16.7843 7.61766 16.7851 7.61705C16.7859 7.61645 16.7863 7.61617 16.7863 7.6162C16.7862 7.61622 16.7857 7.61658 16.7848 7.61724C16.7839 7.6179 16.7825 7.61891 16.7806 7.62021C16.7769 7.62278 16.7709 7.62683 16.763 7.632C16.7476 7.64195 16.7207 7.65868 16.6837 7.67838L14.8045 4.14729ZM17.6885 3.12441C16.2621 3.12441 15.1575 3.87673 14.5867 4.28175L16.9015 7.54392C17.147 7.36975 17.3261 7.25922 17.4769 7.19041C17.6185 7.12584 17.6795 7.12441 17.6885 7.12441V3.12441ZM17.5533 3.11934C17.4998 3.13973 17.4768 3.14838 17.4584 3.15486C17.4435 3.16013 17.4498 3.15742 17.4687 3.15235C17.4893 3.14682 17.5222 3.13921 17.5638 3.13331C17.606 3.12735 17.6483 3.12441 17.6885 3.12441V7.12441C18.3208 7.12441 18.8001 6.92483 18.9783 6.8569L17.5533 3.11934ZM17.7604 3.04249C17.6773 3.07197 17.6025 3.10057 17.5533 3.11934L18.9783 6.85691C19.0321 6.83636 19.0651 6.82387 19.0979 6.81225L17.7604 3.04249ZM20.4175 1.15255C19.4195 1.65517 18.0369 2.32708 16.9182 3.61701L19.9401 6.23773C20.4661 5.63119 21.1339 5.27041 22.2168 4.72504L20.4175 1.15255ZM21.423 0.625803C21.1125 0.802062 20.7898 0.96505 20.4175 1.15255L22.2168 4.72504C22.575 4.54464 22.9865 4.33784 23.3977 4.1044L21.423 0.625803ZM23.2124 -0.264096C22.8154 -0.155057 21.6821 0.101568 20.8654 1.09502L23.9553 3.63518C23.9302 3.6658 23.902 3.69109 23.8777 3.70882C23.8552 3.7252 23.8458 3.7279 23.8618 3.72055C23.8798 3.71234 23.9169 3.69718 23.9877 3.67464C24.0627 3.65077 24.1451 3.62787 24.2718 3.59305L23.2124 -0.264096ZM23.4696 -0.294983C23.5533 -0.371296 23.6127 -0.388965 23.5723 -0.372723C23.5517 -0.364441 23.5155 -0.351355 23.4529 -0.332259C23.3875 -0.312333 23.3161 -0.292596 23.2124 -0.264096L24.2718 3.59305C24.5712 3.51083 25.4564 3.30699 26.1656 2.66002L23.4696 -0.294983ZM30.0689 -1.03514C28.1594 -0.74157 26.6384 -0.525706 25.1669 -0.786735L24.4683 3.15177C26.7003 3.54773 28.8828 3.19422 30.6768 2.91841L30.0689 -1.03514ZM33.0089 -1.40372C31.9877 -1.33126 30.9807 -1.17531 30.0689 -1.03514L30.6768 2.91841C31.6167 2.77391 32.4614 2.64518 33.292 2.58624L33.0089 -1.40372ZM33.9534 -1.45367C33.6612 -1.44162 33.3304 -1.4282 32.9988 -1.40298L33.302 2.5855C33.5527 2.56645 33.8135 2.5555 34.1181 2.54294L33.9534 -1.45367ZM36.3017 -1.81962C35.7082 -1.54891 35.041 -1.49848 33.9534 -1.45366L34.1181 2.54294C35.0907 2.50286 36.545 2.46586 37.9617 1.81962L36.3017 -1.81962ZM42.872 -0.916003C41.2434 -0.916003 39.5369 -1.33147 37.7401 -1.90523L36.5233 1.90523C38.43 2.51404 40.612 3.084 42.872 3.084V-0.916003ZM45.6006 -0.652793C45.0797 -0.870694 43.5384 -1.61548 41.8679 -0.645639L43.8762 2.81363C43.8601 2.82295 43.811 2.84659 43.7372 2.8596C43.6659 2.87218 43.6144 2.86728 43.6 2.86524C43.5924 2.86414 43.6197 2.86729 43.7026 2.8961C43.7917 2.92709 43.8906 2.96777 44.0571 3.03739L45.6006 -0.652793ZM46.066 -0.477959C46.0012 -0.491769 45.9038 -0.525984 45.6006 -0.652792L44.0571 3.03739C44.2944 3.13666 44.7391 3.3292 45.2332 3.43438L46.066 -0.477959ZM47.1794 -0.123118C47.0323 -0.119911 46.9444 -0.118412 46.8661 -0.120588C46.8308 -0.121567 46.8061 -0.123156 46.7891 -0.12471C46.7722 -0.126245 46.7654 -0.127533 46.7662 -0.127383C46.7696 -0.126767 46.8034 -0.120074 46.8523 -0.0976321C46.9037 -0.0740771 46.9469 -0.0444999 46.9768 -0.0180297L44.3225 2.97445C45.461 3.98424 46.8044 3.88601 47.2666 3.87593L47.1794 -0.123118ZM47.5014 -0.127637C47.3831 -0.127637 47.2684 -0.125058 47.1794 -0.123118L47.2666 3.87593C47.3628 3.87383 47.4339 3.87236 47.5014 3.87236V-0.127637ZM55.5327 4.14918C53.5388 2.02691 51.0638 0.128487 47.6478 -0.12227L47.3549 3.867C49.3089 4.01043 50.9079 5.06846 52.6175 6.88807L55.5327 4.14918ZM61.8272 10.2646C59.8487 7.84287 57.5946 5.86896 55.3638 3.9892L52.7863 7.04805C54.9997 8.91309 57.0046 10.6839 58.7295 12.7953L61.8272 10.2646ZM61.9312 10.4785C61.8218 10.4352 61.7856 10.4201 61.7613 10.4086C61.7444 10.4007 61.7823 10.4167 61.8422 10.4612C61.908 10.5101 61.9873 10.5836 62.0588 10.6834C62.1301 10.7827 62.1685 10.8731 62.187 10.9323L58.3698 12.1277C58.839 13.6261 60.1 14.0556 60.4589 14.1977L61.9312 10.4785ZM62.1729 10.5768C62.0805 10.5374 61.9918 10.5025 61.9313 10.4785L60.459 14.1977C60.5269 14.2246 60.5683 14.2411 60.6059 14.2571L62.1729 10.5768ZM61.9264 10.4766L61.9263 10.4766L60.4637 14.1996L60.4638 14.1996L61.9264 10.4766ZM67.4006 15.4682C66.563 12.199 63.8168 11.1229 62.0266 10.5212L60.7522 14.3127C62.4802 14.8935 63.2524 15.3941 63.5258 16.461L67.4006 15.4682ZM66.9293 14.6768C66.9074 14.6629 66.8954 14.6552 66.8848 14.6484C66.8752 14.6421 66.8729 14.6404 66.8748 14.6418C66.8769 14.6432 66.9116 14.6672 66.9601 14.711C67.0621 14.803 67.2622 15.0169 67.3718 15.3669L63.5546 16.5624C63.8698 17.5688 64.7645 18.0404 64.7824 18.0518L66.9293 14.6768ZM67.569 15.1865C67.2958 14.8957 66.9699 14.7026 66.9293 14.6768L64.7824 18.0518C64.8081 18.0682 64.8199 18.0758 64.8294 18.082C64.8378 18.0875 64.8348 18.0858 64.8255 18.079C64.816 18.0722 64.7948 18.0566 64.7667 18.0328C64.7384 18.009 64.6988 17.9733 64.6537 17.9253L67.569 15.1865ZM67.9223 15.5587L67.9202 15.5565L65.025 18.3166L65.0271 18.3188L67.9223 15.5587ZM67.9197 15.556C67.7981 15.4286 67.6827 15.3075 67.5689 15.1865L64.6537 17.9254C64.7797 18.0595 64.9059 18.1917 65.0255 18.3171L67.9197 15.556ZM70.8673 20.5985C70.5105 18.1934 68.9474 16.6331 67.9217 15.5581L65.0277 18.3194C66.1815 19.5287 66.7675 20.2208 66.9106 21.1855L70.8673 20.5985ZM70.8942 21.1197C70.877 21.0953 70.8653 21.075 70.858 21.0607C70.8508 21.0462 70.8504 21.0424 70.8526 21.05C70.8574 21.0659 70.8766 21.1442 70.8545 21.2613L66.9233 20.5227C66.6948 21.739 67.1701 22.7791 67.6244 23.4237L70.8942 21.1197ZM71.567 23.4013C71.4245 22.845 71.3072 22.3826 71.2307 21.9349L67.2878 22.6085C67.3965 23.2448 67.557 23.8664 67.6922 24.3941L71.567 23.4013ZM71.9714 25.1869C71.8627 24.5506 71.7023 23.9289 71.567 23.4012L67.6922 24.3942C67.8348 24.9505 67.9521 25.4128 68.0286 25.8605L71.9714 25.1869ZM71.3914 28.3462L71.947 25.9811L68.053 25.0664L67.4974 27.4315L71.3914 28.3462ZM67.4444 27.8884C67.4444 28.0437 67.4306 28.2222 67.4042 28.4718C67.3811 28.6906 67.3408 29.0245 67.3186 29.3374L71.3086 29.6201C71.3243 29.3991 71.3493 29.2026 71.3821 28.8922C71.4116 28.6125 71.4444 28.2631 71.4444 27.8893L67.4444 27.8884ZM67.3186 29.3374C67.2444 30.3856 67.1291 31.7982 67.4629 33.2191L71.3569 32.3045C71.1853 31.5741 71.2267 30.7766 71.3086 29.6201L67.3186 29.3374ZM67.4629 32.3045C67.4678 32.2836 67.4704 32.2776 67.4647 32.2951C67.4621 32.3033 67.4582 32.3147 67.4525 32.3314C67.4465 32.3488 67.44 32.3673 67.4309 32.393L71.2037 33.722C71.2316 33.6428 71.3047 33.4413 71.3569 33.2192L67.4629 32.3045ZM67.431 32.3929C67.3834 32.5278 66.7997 33.8437 67.6824 35.0964L70.9522 32.7924C71.0405 32.9177 71.1154 33.0738 71.1586 33.2518C71.2006 33.4255 71.2014 33.5742 71.1924 33.6764C71.188 33.7261 71.1814 33.7645 71.1764 33.7892C71.1714 33.8137 71.1673 33.8282 71.1668 33.8296C71.1665 33.8308 71.1684 33.8242 71.1748 33.805C71.1817 33.7844 71.1898 33.7614 71.2037 33.7221L67.431 32.3929ZM67.3351 33.6784C67.1378 35.1485 67.0396 36.6171 67.0396 38.1819H71.0396C71.0396 36.7903 71.1265 35.4996 71.2995 34.2105L67.3351 33.6784ZM67.0396 38.1819C67.0396 38.5229 66.9257 38.8797 66.6291 39.6523L70.3633 41.0859C70.6157 40.4285 71.0396 39.3847 71.0396 38.1819H67.0396ZM66.6291 39.6522C66.4564 40.1021 66.2147 40.7211 66.0665 41.4044L69.9757 42.252C70.0483 41.9168 70.1738 41.5796 70.3633 41.086L66.6291 39.6522ZM66.2412 40.9161C65.6017 42.1639 65.1274 43.5066 65.0088 45.0227L68.9965 45.3349C69.063 44.4858 69.3294 43.6605 69.801 42.7403L66.2412 40.9161ZM65.0026 45.1788C65.0026 45.2168 65.0019 45.1768 65.0051 45.1261C65.0079 45.0807 65.0188 44.92 65.0824 44.7168C65.1477 44.5083 65.3064 44.1346 65.6878 43.8187C66.0977 43.4791 66.5582 43.3759 66.9101 43.3759V47.3759C67.3083 47.3759 67.8034 47.2603 68.2394 46.8992C68.6469 46.5617 68.8229 46.1572 68.8997 45.9117C68.9749 45.6716 68.9916 45.4677 68.9973 45.3761C69.0034 45.2792 69.0026 45.19 69.0026 45.1788H65.0026ZM65.0291 44.6962C64.7638 45.4304 64.5574 46.2043 64.3766 46.8776L68.2399 47.9146C68.4295 47.2082 68.5934 46.6024 68.7911 46.0555L65.0291 44.6962ZM64.3766 46.8775C64.187 47.5839 64.0231 48.1897 63.8255 48.7366L67.5874 50.096C67.8527 49.3618 68.0591 48.5879 68.2399 47.9146L64.3766 46.8775ZM63.7588 48.9613L63.2983 50.933L67.1934 51.8428L67.654 49.8712L63.7588 48.9613ZM66.2117 54.8677C66.4795 54.2995 66.728 53.5039 66.8885 52.9563C66.9752 52.6606 67.0486 52.3937 67.1003 52.2008C67.1262 52.104 67.1469 52.0251 67.1614 51.9695C67.1686 51.9417 67.1742 51.9198 67.1782 51.9042C67.1802 51.8965 67.1817 51.8904 67.1829 51.8859C67.1834 51.8837 67.1839 51.8819 67.1842 51.8806C67.1844 51.8799 67.1845 51.8793 67.1847 51.8789C67.1847 51.8786 67.1848 51.8784 67.1848 51.8783C67.1848 51.8782 67.1849 51.8781 67.1849 51.878C67.1849 51.8779 67.1849 51.8778 65.2459 51.3879C63.3068 50.898 63.3068 50.8979 63.3068 50.8978C63.3068 50.8978 63.3069 50.8977 63.3069 50.8977C63.3069 50.8977 63.3069 50.8976 63.3069 50.8976C63.3069 50.8976 63.3069 50.8977 63.3068 50.8979C63.3067 50.8983 63.3065 50.8991 63.3062 50.9003C63.3056 50.9027 63.3045 50.9069 63.3031 50.9125C63.3002 50.9239 63.2956 50.9415 63.2896 50.9647C63.2776 51.0111 63.2596 51.0797 63.2367 51.1651C63.1908 51.3366 63.1259 51.5725 63.0501 51.831C62.8857 52.3917 62.7125 52.9096 62.5935 53.1621L66.2117 54.8677ZM65.8121 55.7632C65.9183 55.4917 66.0475 55.216 66.2117 54.8677L62.5935 53.1621C62.4392 53.4895 62.251 53.887 62.0873 54.3051L65.8121 55.7632ZM65.2357 56.7077C65.2532 56.6561 65.2673 56.6149 65.281 56.5754C65.2945 56.5369 65.3055 56.5064 65.3153 56.481C65.3354 56.4282 65.3443 56.4113 65.3429 56.414C65.3406 56.4184 65.3221 56.4533 65.2823 56.5022C65.2406 56.5536 65.1822 56.6119 65.1071 56.6653L62.7923 53.4031C61.8349 54.0825 61.5402 55.1502 61.4479 55.4223L65.2357 56.7077ZM64.7188 57.8696C65.0073 57.409 65.1626 56.9231 65.2357 56.7078L61.4479 55.4224C61.4016 55.5586 61.3761 55.6321 61.3506 55.695C61.3276 55.7518 61.3197 55.761 61.3288 55.7464L64.7188 57.8696ZM65.2648 56.6146L65.2648 56.6145L61.4188 55.5156L61.4187 55.5157L65.2648 56.6146ZM63.9712 58.7406L63.9719 58.7399L60.9796 56.0854L60.9789 56.0861L63.9712 58.7406ZM63.969 58.7431C64.1572 58.5318 64.3211 58.3481 64.4814 58.1775L61.5662 55.4385C61.3633 55.6545 61.1639 55.8785 60.9824 56.0822L63.969 58.7431ZM62.6126 60.1579C63.1376 59.679 63.5992 59.1582 63.9683 58.7439L60.9817 56.0831C60.5902 56.5225 60.2635 56.8865 59.9167 57.2029L62.6126 60.1579ZM63.9698 58.7422L63.9699 58.7421L60.9803 56.0846L60.9802 56.0847L63.9698 58.7422ZM61.7038 61.331C62.051 60.9614 62.5918 60.399 63.0069 59.6625L59.5224 57.6983C59.382 57.9474 59.1821 58.1733 58.7886 58.5921L61.7038 61.331ZM61.084 61.7767L61.084 61.7766L58.8652 58.4484L58.8652 58.4485L61.084 61.7767ZM60.9636 61.8509C61.053 61.8 61.1187 61.7628 61.1857 61.7271L59.3067 58.196C59.1824 58.2621 59.0692 58.3266 58.9856 58.3742L60.9636 61.8509ZM59.742 62.387C60.3043 62.2374 60.7436 61.976 60.9636 61.8509L58.9856 58.3742C58.8506 58.451 58.7913 58.4838 58.7409 58.5082C58.7026 58.5267 58.6989 58.5254 58.7134 58.5215L59.742 62.387ZM59.9161 62.2719C59.9791 62.1947 60 62.1701 60.0147 62.1541C60.0255 62.1422 59.9992 62.173 59.9414 62.217C59.8792 62.2644 59.7785 62.329 59.6407 62.3794C59.4992 62.4313 59.3568 62.4543 59.2277 62.4543V58.4543C57.7425 58.4543 56.9536 59.5757 56.819 59.7404L59.9161 62.2719ZM59.008 63.1253C59.4958 62.8138 59.8252 62.3831 59.9161 62.2718L56.819 59.7405C56.8019 59.7613 56.7884 59.7779 56.7753 59.7938C56.7625 59.8093 56.7521 59.8217 56.7433 59.8321C56.7345 59.8424 56.7281 59.8497 56.7236 59.8549C56.719 59.86 56.7169 59.8621 56.717 59.8621C56.7171 59.862 56.7199 59.8591 56.7251 59.854C56.7304 59.8489 56.7387 59.8413 56.7498 59.8317C56.7718 59.8128 56.807 59.7849 56.8551 59.7542L59.008 63.1253ZM58.4151 63.4232C58.4293 63.4181 58.5706 63.3703 58.7187 63.2986C58.8777 63.2217 59.1399 63.0745 59.3892 62.8091L56.4739 60.0703C56.6769 59.8543 56.8812 59.744 56.9766 59.6979C57.0611 59.657 57.1329 59.6338 57.0776 59.6534L58.4151 63.4232ZM59.0188 63.0062C58.8158 63.2224 58.6113 63.3326 58.5161 63.3787C58.4317 63.4195 58.3599 63.4428 58.4151 63.4232L57.0776 59.6534C57.0634 59.6584 56.9222 59.7063 56.7741 59.778C56.6152 59.8548 56.3529 60.002 56.1035 60.2674L59.0188 63.0062ZM56.0114 62.9574C56.0365 62.9841 56.5858 63.6368 57.5612 63.6368V59.6368C57.9345 59.6368 58.2885 59.748 58.5825 59.9357C58.8125 60.0826 58.9652 60.2597 58.9258 60.2177L56.0114 62.9574ZM57.376 63.5383C57.0026 63.5383 56.6487 63.4271 56.3547 63.2394C56.1246 63.0926 55.972 62.9156 56.0114 62.9574L58.9258 60.2177C58.9007 60.191 58.3513 59.5383 57.376 59.5383V63.5383ZM57.9982 63.4986C57.9762 63.522 58.0145 63.4818 58.1356 63.4059C58.1821 63.3767 58.2239 63.3528 58.2522 63.3373C58.2659 63.3298 58.2752 63.3248 58.2789 63.3229C58.2807 63.322 58.2811 63.3218 58.2797 63.3225C58.2791 63.3228 58.278 63.3234 58.2765 63.3241C58.2757 63.3245 58.2748 63.325 58.2738 63.3255C58.2734 63.3257 58.2728 63.326 58.2723 63.3262C58.272 63.3264 58.2717 63.3265 58.2714 63.3267C58.2713 63.3267 58.2711 63.3269 58.271 63.3269C58.2708 63.327 58.2705 63.3271 57.376 61.5383C56.4814 59.7495 56.4812 59.7496 56.481 59.7498C56.4809 59.7498 56.4806 59.7499 56.4805 59.75C56.4802 59.7502 56.4798 59.7503 56.4795 59.7505C56.4788 59.7508 56.4781 59.7512 56.4773 59.7516C56.4758 59.7523 56.4742 59.7532 56.4724 59.7541C56.4689 59.7558 56.4648 59.7579 56.4602 59.7603C56.451 59.765 56.4397 59.7708 56.4264 59.7777C56.4 59.7915 56.3656 59.8098 56.325 59.8322C56.2445 59.8764 56.1349 59.9391 56.0109 60.0168C55.7909 60.1547 55.4116 60.4099 55.083 60.7597L57.9982 63.4986ZM56.8481 64.8537C56.9619 64.79 57.4735 64.5283 57.8721 64.0718C58.3857 63.4835 58.6142 62.7303 58.5297 61.9215L54.5514 62.3368C54.5429 62.2556 54.5414 62.1014 54.6 61.9098C54.6601 61.7132 54.7597 61.5546 54.8588 61.4411C54.9483 61.3387 55.0225 61.2899 55.0241 61.2888C55.0267 61.2871 55.0201 61.2916 54.9971 61.3051C54.9724 61.3196 54.9442 61.3354 54.8956 61.3626L56.8481 64.8537ZM56.9357 64.7105C56.8318 64.8487 56.7348 64.9168 56.722 64.9257C56.714 64.9313 56.717 64.9286 56.74 64.9151C56.765 64.9003 56.7941 64.8839 56.8481 64.8537L54.8956 61.3626C54.7779 61.4284 54.1696 61.7332 53.7382 62.3072L56.9357 64.7105ZM54.7229 66.0957C55.2688 65.7838 55.7126 65.5321 56.1549 65.3339L54.519 61.6837C53.8677 61.9756 53.2538 62.3282 52.7387 62.6225L54.7229 66.0957ZM50.0635 67.7731C52.0231 67.6783 53.6168 66.7276 54.7229 66.0957L52.7387 62.6225C51.4924 63.3345 50.7183 63.7367 49.8702 63.7777L50.0635 67.7731ZM48.4955 68.5079C49.3123 67.982 49.6673 67.7966 50.0849 67.7719L49.8488 63.7789C48.2363 63.8742 47.0421 64.6863 46.3302 65.1446L48.4955 68.5079ZM46.5618 69.5326C47.3604 69.2493 48.0397 68.8013 48.4955 68.5079L46.3302 65.1446C45.8049 65.4828 45.5116 65.661 45.2243 65.7629L46.5618 69.5326ZM44.3863 70.3836L44.3864 70.3836L42.7102 66.7517L42.71 66.7518L44.3863 70.3836ZM44.3101 70.4169C45.0794 70.0999 45.8096 69.7996 46.5618 69.5326L45.2243 65.7629C44.363 66.0685 43.5421 66.4071 42.7864 66.7184L44.3101 70.4169ZM42.6225 71.094C43.1957 70.8762 43.7647 70.6416 44.31 70.4169L42.7863 66.7185C42.2319 66.9469 41.7141 67.1601 41.2012 67.3551L42.6225 71.094ZM41.6854 70.7631C41.5774 70.7918 41.3945 70.8222 41.1636 70.7927C40.9234 70.762 40.7084 70.6763 40.5345 70.5652C40.2461 70.3811 40.1412 70.1654 40.2169 70.2862L43.6068 68.1629C43.4973 67.9881 43.2073 67.526 42.6874 67.194C42.035 66.7774 41.3049 66.7251 40.6568 66.8976L41.6854 70.7631ZM34.0527 71.9127C36.53 72.0141 39.3585 71.9399 42.048 70.6279L40.2942 67.0328C38.5395 67.8888 36.5536 68.0118 34.2164 67.9161L34.0527 71.9127ZM29.689 71.4373C30.9124 71.7525 32.6052 72.2169 34.4839 71.8837L33.7852 67.9452C32.8916 68.1037 32.0284 67.9094 30.6871 67.5638L29.689 71.4373ZM27.6543 71.019C28.2695 71.0759 28.89 71.2314 29.689 71.4373L30.6871 67.5638C29.9394 67.3711 29.01 67.1273 28.023 67.036L27.6543 71.019ZM26.2509 70.6945C26.6752 70.9202 27.0871 70.9809 27.303 71.0039C27.5397 71.0291 27.7579 71.0275 27.8387 71.0275V67.0275C27.7897 67.0275 27.7643 67.0273 27.7413 67.0267C27.7196 67.0261 27.7166 67.0254 27.7262 67.0264C27.7344 67.0272 27.7732 67.0316 27.8327 67.0465C27.8899 67.061 27.9982 67.0932 28.1302 67.1634L26.2509 70.6945ZM22.1256 68.3292L22.1257 68.3292L24.4784 65.0943L24.4783 65.0942L22.1256 68.3292ZM22.1886 68.3732C23.4059 69.1889 24.8359 70.1569 26.4634 70.7921L27.9177 67.0658C26.7677 66.617 25.6979 65.9098 24.4154 65.0503L22.1886 68.3732ZM18.6861 66.3574C19.8361 66.8062 20.9059 67.5135 22.1884 68.373L24.4153 65.0502C23.198 64.2344 21.7679 63.2663 20.1404 62.6312L18.6861 66.3574ZM22.2339 68.4026L22.234 68.4027L24.3699 65.0207L24.3698 65.0206L22.2339 68.4026ZM17.1911 63.1148C15.9899 64.7139 15.99 64.714 15.9901 64.7141C15.9901 64.7141 15.9902 64.7142 15.9903 64.7142C15.9905 64.7144 15.9907 64.7145 15.9909 64.7147C15.9914 64.715 15.9919 64.7154 15.9925 64.7159C15.9938 64.7168 15.9954 64.7181 15.9974 64.7196C16.0015 64.7226 16.007 64.7267 16.0139 64.7319C16.0278 64.7422 16.0474 64.7567 16.072 64.7749C16.1211 64.8112 16.1908 64.8623 16.2759 64.9238C16.4452 65.0461 16.6804 65.213 16.9403 65.3885C17.197 65.5616 17.4956 65.7553 17.7885 65.9253C18.0427 66.0728 18.4324 66.2864 18.8313 66.4078L19.9951 62.5808C20.0701 62.6036 20.0199 62.5955 19.7967 62.4659C19.6122 62.3588 19.3958 62.2199 19.1779 62.0728C18.9633 61.928 18.7645 61.787 18.6184 61.6815C18.5459 61.6291 18.4875 61.5862 18.448 61.5571C18.4284 61.5426 18.4135 61.5315 18.4039 61.5244C18.3992 61.5209 18.3958 61.5183 18.3938 61.5169C18.3929 61.5161 18.3922 61.5157 18.392 61.5155C18.3919 61.5154 18.3918 61.5154 18.3919 61.5154C18.3919 61.5154 18.392 61.5155 18.392 61.5155C18.3921 61.5155 18.3921 61.5156 18.3922 61.5156C18.3922 61.5157 18.3923 61.5157 17.1911 63.1148ZM13.6409 63.9961C14.2489 64.3199 15.0731 64.5884 15.6198 64.7535C15.9185 64.8437 16.1873 64.9184 16.3814 64.9705C16.4788 64.9967 16.5585 65.0174 16.6148 65.0319C16.643 65.0392 16.6655 65.0449 16.6815 65.0489C16.6895 65.051 16.6959 65.0526 16.7006 65.0537C16.703 65.0543 16.7049 65.0548 16.7064 65.0552C16.7072 65.0554 16.7078 65.0555 16.7083 65.0557C16.7086 65.0557 16.7088 65.0558 16.7091 65.0559C16.7092 65.0559 16.7093 65.0559 16.7094 65.0559C16.7095 65.056 16.7096 65.056 17.1911 63.1148C17.6726 61.1736 17.6727 61.1737 17.6728 61.1737C17.6728 61.1737 17.6729 61.1737 17.673 61.1737C17.6731 61.1738 17.6732 61.1738 17.6732 61.1738C17.6733 61.1738 17.6733 61.1738 17.6732 61.1738C17.673 61.1738 17.6724 61.1736 17.6714 61.1733C17.6693 61.1728 17.6656 61.1719 17.6604 61.1706C17.6499 61.1679 17.6334 61.1637 17.6113 61.1581C17.5672 61.1467 17.5013 61.1295 17.419 61.1074C17.2537 61.063 17.0258 60.9997 16.776 60.9243C16.2255 60.758 15.7446 60.5846 15.5212 60.4655L13.6409 63.9961ZM11.9926 63.3382C12.3778 63.3587 12.7802 63.5377 13.6409 63.9961L15.5212 60.4656C14.804 60.0836 13.6229 59.4193 12.2051 59.3438L11.9926 63.3382ZM7.83107 59.6156L7.83113 59.6157L10.904 57.055L10.904 57.0549L7.83107 59.6156ZM7.87631 59.6681C8.77623 60.675 9.69547 61.7038 10.6412 62.7104L13.5564 59.9715C12.6505 59.0073 11.7643 58.0158 10.8588 57.0026L7.87631 59.6681ZM5.17859 56.699C6.08444 57.6632 6.97074 58.6548 7.87616 59.6679L10.8587 57.0024C9.95885 55.9956 9.03947 54.9667 8.0938 53.9601L5.17859 56.699ZM7.89311 59.6866L7.8932 59.6867L10.8418 56.9838L10.8417 56.9837L7.89311 59.6866ZM4.2348 54.3746C4.59775 54.9154 4.63619 55.1107 4.63619 55.3296H8.63619C8.63619 53.9716 8.11913 52.9844 7.55622 52.1456L4.2348 54.3746ZM0.0726412 44.6907C1.07974 47.8368 2.16641 51.2724 4.23148 54.3696L7.55955 52.1506C5.85564 49.5951 4.91679 46.7032 3.88222 43.4712L0.0726412 44.6907ZM1.72911 43.3068C-0.175124 43.9183 -0.175123 43.9183 -0.175122 43.9183C-0.175121 43.9183 -0.175119 43.9183 -0.175117 43.9183C-0.175112 43.9184 -0.175104 43.9184 -0.175095 43.9184C-0.175075 43.9185 -0.175045 43.9186 -0.175005 43.9187C-0.174926 43.9189 -0.174808 43.9193 -0.17465 43.9198C-0.174336 43.9208 -0.173867 43.9222 -0.173251 43.9242C-0.17202 43.928 -0.170203 43.9336 -0.167859 43.9409C-0.163173 43.9555 -0.156383 43.9767 -0.147977 44.0029C-0.131164 44.0552 -0.107888 44.1278 -0.0820367 44.2083C-0.0302708 44.3696 0.0316058 44.5625 0.0726399 44.6907L3.88222 43.4712C3.84068 43.3415 3.7784 43.1473 3.72665 42.986C3.70074 42.9053 3.67741 42.8326 3.66057 42.7802C3.65214 42.7539 3.64534 42.7327 3.64064 42.7181C3.63829 42.7108 3.63646 42.7051 3.63523 42.7012C3.63461 42.6993 3.63414 42.6978 3.63382 42.6969C3.63366 42.6964 3.63354 42.696 3.63346 42.6957C3.63342 42.6956 3.63339 42.6955 3.63337 42.6955C3.63336 42.6954 3.63335 42.6954 3.63334 42.6954C3.63334 42.6954 3.63334 42.6954 3.63334 42.6954C3.63334 42.6954 3.63334 42.6954 1.72911 43.3068ZM3.70121 42.974L2.97426 38.6671L-0.969945 39.3329L-0.242999 43.6397L3.70121 42.974Z" fill="#C0AE04" mask="url(#path-1-inside-1_204_38502)"/>
</svg>
