<svg width="14" height="48" viewBox="0 0 14 48" fill="none" xmlns="http://www.w3.org/2000/svg">
<path fill-rule="evenodd" clip-rule="evenodd" d="M7.00003 47.5C6.80112 47.5 6.61035 47.421 6.4697 47.2803C6.32905 47.1397 6.25003 46.9489 6.25003 46.75L6.25003 3.0605L1.53103 7.781C1.3902 7.92183 1.1992 8.00094 1.00003 8.00094C0.80087 8.00094 0.609863 7.92183 0.469033 7.781C0.328203 7.64017 0.249086 7.44916 0.249086 7.25C0.249086 7.05083 0.328203 6.85983 0.469033 6.719L6.46903 0.719001C6.5387 0.649158 6.62147 0.593742 6.71258 0.55593C6.8037 0.518119 6.90138 0.498657 7.00003 0.498657C7.09868 0.498657 7.19637 0.518119 7.28748 0.555931C7.3786 0.593742 7.46137 0.649158 7.53103 0.719001L13.531 6.719C13.6719 6.85983 13.751 7.05083 13.751 7.25C13.751 7.44917 13.6719 7.64017 13.531 7.781C13.3902 7.92183 13.1992 8.00095 13 8.00095C12.8009 8.00095 12.6099 7.92183 12.469 7.781L7.75003 3.0605L7.75003 46.75C7.75003 46.9489 7.67101 47.1397 7.53036 47.2803C7.38971 47.421 7.19894 47.5 7.00003 47.5Z" fill="#E7D000"/>
</svg>
