<svg width="14" height="48" viewBox="0 0 14 48" fill="none" xmlns="http://www.w3.org/2000/svg">
<path fill-rule="evenodd" clip-rule="evenodd" d="M7.00003 0.500001C6.80112 0.500001 6.61035 0.579018 6.4697 0.719671C6.32905 0.860323 6.25003 1.05109 6.25003 1.25L6.25003 44.9395L1.53103 40.219C1.3902 40.0782 1.1992 39.9991 1.00003 39.9991C0.80087 39.9991 0.609863 40.0782 0.469033 40.219C0.328203 40.3598 0.249086 40.5508 0.249086 40.75C0.249086 40.9492 0.328203 41.1402 0.469033 41.281L6.46903 47.281C6.5387 47.3508 6.62147 47.4063 6.71258 47.4441C6.8037 47.4819 6.90138 47.5013 7.00003 47.5013C7.09868 47.5013 7.19637 47.4819 7.28748 47.4441C7.3786 47.4063 7.46137 47.3508 7.53103 47.281L13.531 41.281C13.6719 41.1402 13.751 40.9492 13.751 40.75C13.751 40.5508 13.6719 40.3598 13.531 40.219C13.3902 40.0782 13.1992 39.9991 13 39.9991C12.8009 39.9991 12.6099 40.0782 12.469 40.219L7.75003 44.9395L7.75003 1.25C7.75003 1.05109 7.67101 0.860323 7.53036 0.71967C7.38971 0.579018 7.19894 0.500001 7.00003 0.500001Z" fill="#E7D000"/>
</svg>
