<svg width="36" height="24" viewBox="0 0 36 24" fill="none" xmlns="http://www.w3.org/2000/svg">
<path fill-rule="evenodd" clip-rule="evenodd" d="M0.5 12C0.5 11.6612 0.631688 11.3362 0.866093 11.0966C1.1005 10.857 1.41842 10.7224 1.74992 10.7224L31.2305 10.7224L23.3635 2.68375C23.1288 2.44385 22.997 2.11848 22.997 1.77921C22.997 1.43994 23.1288 1.11457 23.3635 0.874672C23.5982 0.634773 23.9166 0.500001 24.2485 0.500001C24.5804 0.500001 24.8987 0.634774 25.1334 0.874672L35.1328 11.0955C35.2492 11.2141 35.3415 11.3551 35.4046 11.5103C35.4676 11.6656 35.5 11.832 35.5 12C35.5 12.168 35.4676 12.3344 35.4046 12.4897C35.3415 12.6449 35.2492 12.7859 35.1328 12.9045L25.1334 23.1253C24.8987 23.3652 24.5804 23.5 24.2485 23.5C23.9166 23.5 23.5982 23.3652 23.3635 23.1253C23.1288 22.8854 22.997 22.5601 22.997 22.2208C22.997 21.8815 23.1288 21.5561 23.3635 21.3162L31.2305 13.2776L1.74992 13.2776C1.41842 13.2776 1.1005 13.143 0.866093 12.9034C0.631688 12.6638 0.5 12.3388 0.5 12Z" fill="#C0AE04"/>
</svg>
