<svg width="87" height="89" viewBox="0 0 87 89" fill="none" xmlns="http://www.w3.org/2000/svg">
<path d="M22.0783 13.9096C22.0783 13.1108 22.2812 12.6069 22.0783 11.908C20.8608 6.61589 22.1295 3.1957 27.1009 0.899137C31.565 -1.19772 34.7212 0.606478 36.1416 3.90154C38.3736 9.39332 40.6469 15.2237 42.1687 20.9152C42.7775 23.2117 44.1677 24.7233 45.1823 26.92C45.6896 28.0183 46.5826 28.0183 47.1913 26.92C47.9015 25.5221 48.6931 24.4145 49.2004 22.9168C49.5047 22.0181 49.1903 21.1149 50.2049 20.9152C51.118 20.7155 51.0065 19.6125 51.2094 18.9136C51.7167 16.7169 54.7202 17.0072 55.2275 14.9104C57.3581 14.9104 58.4239 12.5071 60.2501 11.908C63.2938 11.0093 67.3631 12.3143 69.2908 14.9104C71.3199 17.6063 72.9231 20.5227 71.2998 23.9176C70.7925 25.1158 70.7011 26.7226 70.2953 27.9208C70.0924 28.6197 68.895 28.5222 68.2862 28.9216C65.1411 31.0184 63.3852 33.9325 61.2546 36.928C61.0517 37.2276 60.9502 37.3297 61.2546 37.9288C62.5736 38.3282 63.7508 39.329 65.2727 38.9296C70.0412 37.6316 74.7704 38.3305 79.336 38.9296C85.0176 39.6286 88.4982 45.0458 86.3676 49.9384C85.556 51.8356 83.9829 54.1436 81.345 54.9424C77.3882 56.1406 73.2476 57.7474 69.2908 58.9457C68.682 59.1454 67.9919 58.9457 67.2817 58.9457C61.3972 59.3451 56.5866 58.2398 51.2094 55.9432C50.8036 54.745 51.6052 53.6398 52.2139 52.9408C55.7649 48.5474 56.0693 46.1257 52.2139 41.932C51.3008 41.1332 50.7122 40.028 50.2049 38.9296C47.4655 32.5392 39.0125 29.3302 33.128 32.9248C31.3018 34.0232 29.6273 35.3304 28.1054 36.928C24.25 41.4213 23.357 47.4468 26.0964 51.94C27.0095 52.8387 27.2938 53.9439 28.1054 54.9424C29.5258 56.6399 31.799 56.944 34.1325 56.944C38.4952 56.8442 43.0316 57.6407 47.1913 55.9432C48.2059 55.8434 49.1903 55.444 50.2049 55.9432C53.2486 57.8404 58.1195 59.2521 60.2501 61.9481C61.7719 63.7454 61.2446 61.753 62.2591 63.9497C63.1722 65.8468 65.2526 67.5558 67.2817 68.9537C69.3109 70.3516 71.0969 72.8639 71.2998 75.9593C71.5027 78.2558 68.4892 80.5662 68.2863 81.9641C67.6775 85.2592 62.6951 88.77 59.2456 88.9697C57.2164 89.0696 54.8418 88.9674 53.2184 87.9689C50.7835 86.3713 48.2159 85.1616 46.1868 82.9649C44.462 81.1676 42.3817 79.0569 41.1642 76.9601C40.454 75.7619 41.2757 78.56 40.1597 77.9609C38.0291 76.8625 39.2667 74.0529 38.1506 71.9561C37.7448 71.1573 37.7549 70.6534 37.1461 69.9545C36.7403 69.3554 35.7458 68.3546 35.1371 68.9537C33.9196 70.1519 32.4379 72.0582 31.119 72.9569C27.8724 75.2534 26.5424 79.1637 22.0783 79.9625C16.904 80.961 12.8448 78.0493 12.0331 72.9569C11.5258 70.0612 13.0276 68.0481 14.0421 65.9513C14.9553 64.154 16.9542 63.2438 17.0557 60.9473C17.0557 60.3482 17.5529 59.4449 18.0602 58.9457C17.7558 57.9471 16.7614 57.9449 16.0512 57.9449C11.4856 58.1446 7.25361 57.441 2.99241 55.9432C-0.761513 54.6452 -0.852918 48.8332 1.98789 46.936C5.13306 44.8392 8.07626 43.2324 12.0331 42.9328C13.0477 42.833 13.7277 42.3314 15.0467 41.932C14.3365 40.2346 13.352 39.5287 12.0331 38.9296C5.94565 36.1338 2.70814 31.0093 0.983364 24.9184C0.577535 23.5205 1.07477 22.8146 1.98788 21.916C3.20537 20.7178 4.48411 18.8114 6.00597 17.9128C11.0788 16.415 16.2038 17.9151 21.0738 18.9136C22.0883 19.1133 23.1742 20.7132 24.0873 19.9144C25.2034 18.9159 23.3872 17.9105 23.0828 16.912C22.4741 16.3129 22.5856 15.0079 22.0783 13.9096Z" fill="#E9E5C5"/>
<path d="M23 18.0334C24.4301 18.9557 24.6935 20.522 25 21.7797C23.5699 22.4505 21.8172 21.43 21 20.8431C18.7527 19.25 16.2473 20.3115 14 18.97C13.3871 18.6346 12.9194 19.8227 12 19.9065C11.3871 19.4034 11.8172 18.7042 11 18.0334C9.36559 18.6203 7.94086 18.8861 6 18.97C8.65591 17.7961 11.2419 17.8515 14 17.0968C14.4086 17.013 15.7957 16.9291 16 17.0968C18.043 18.8576 20.4462 19.1519 23 19.9065C23.6129 19.2358 22.7957 18.7042 23 18.0334Z" fill="#E9E5C5"/>
<path d="M52.9777 42C56.6535 45.0987 56.9723 49.3952 53.9563 52.978C53.2022 53.8495 51.586 54.9069 51.0205 55.972C50.6435 55.972 50.4189 55.972 50.0419 55.972C49.9476 55.8752 50.1361 56.0689 50.0419 55.972C50.0419 55.8752 49.9476 55.0709 50.0419 54.974C53.5292 51.2944 54.4496 47.8397 51.9991 42.998C51.9991 42.8043 52.8834 42.1937 52.9777 42Z" fill="#E9E5C5"/>
<path d="M22.0053 14C22.6852 14.8182 22.8489 15.9091 23 17C21.8669 16.3636 22.0053 15.1818 22.0053 14Z" fill="#E9E5C5"/>
<path d="M49.9545 56.0517C49.0341 56.5616 48.0227 57.1632 47 56.9592C47.4091 55.5317 48.5227 54.6344 49.9545 55.1443V55.1443C50.0568 55.3482 49.9545 55.8478 49.9545 56.0517Z" fill="#E9E5C5"/>
<path d="M51.7858 54.7246C50.7493 55.0165 49.5811 56.1347 48.7519 56.7187C43.8803 59.0546 38.6615 57.4238 33.5826 57.7157C32.4424 57.8131 31.2742 57.4973 30.5487 56.7187C29.0976 55.2587 26.4251 53.4853 25.4922 51.7334C22.6936 46.1856 24.0943 41.5465 27.5148 36.7774C34.9777 29.7697 41.2638 29.6011 49.7632 33.7862C50.9034 34.3702 51.3712 35.4148 51.7858 36.7774C52.3041 38.2374 53.3685 39.6951 54.8197 40.7657C55.2343 41.6416 55.3127 42.8809 55.831 43.7569C57.6967 46.8714 57.3073 49.2028 54.8197 51.7334C53.6795 52.7067 52.7187 53.7513 51.7858 54.7246Z" fill="#E7D000"/>
<path d="M26.9914 36C27.0913 36.599 26.2962 37.4867 25.9964 37.9858C23.5981 42.0788 23.3026 46.3014 25.0014 50.8936C25.1014 51.2929 25.0014 51.4872 25.0014 51.8865C24.7016 51.7867 24.1064 52.186 24.0065 51.8865C21.808 47.6936 23.3939 39.1945 26.9914 36Z" fill="#E9E5C5"/>
</svg>
