<svg width="59" height="61" viewBox="0 0 59 61" fill="none" xmlns="http://www.w3.org/2000/svg">
<path d="M15.0179 9.51344C15.0179 8.96683 14.8815 8.48858 14.7452 8.0103C13.9271 4.38902 15.2224 2.13424 18.5628 0.562737C21.5624 -0.872112 23.4712 0.63108 24.4257 2.88584C25.9254 6.64378 27.5616 10.2651 28.5842 14.1597C28.9932 15.7312 29.7431 17.2343 30.4248 18.7375C30.7657 19.489 31.3111 19.4207 31.7201 18.6691C32.1973 17.7126 32.6063 16.8243 32.9472 15.7994C33.1517 15.1845 33.2881 14.6379 33.9698 14.5013C34.5833 14.3646 34.7197 13.818 34.856 13.3397C35.1969 11.8365 36.9694 11.4265 37.3102 9.99169C38.7419 9.99169 39.4918 8.62519 40.7189 8.21523C42.764 7.60029 45.6955 8.55684 46.9907 10.3333C48.3542 12.1781 49.1723 14.228 48.0815 16.5511C47.7406 17.371 47.4679 18.2592 47.1953 19.0791C47.0589 19.5574 46.8544 19.8307 46.4454 20.104C44.332 21.5388 42.6959 23.452 41.2643 25.5018C41.1279 25.7067 41.0597 25.9117 41.2643 26.3216C42.1505 26.5949 43.3094 26.6633 44.332 26.3899C47.5361 25.5017 50.7402 26.185 53.808 26.595C57.6256 27.0732 60.0117 31.0362 58.5801 34.3842C58.0347 35.6823 56.9439 37.1855 55.1714 37.7321C52.5127 38.5521 49.7858 39.4403 47.1271 40.2602C46.718 40.3968 46.2408 40.3285 45.7636 40.3285C41.8096 40.6018 38.1283 39.6453 34.5152 38.0738C34.2425 37.2539 34.856 36.8439 35.2651 36.3656C37.6511 33.3593 37.5829 31.4461 34.9924 28.5764C34.3788 28.0298 33.9698 27.3465 33.6289 26.595C31.7883 22.2221 26.1981 20.309 22.2441 22.7687C21.017 23.5203 19.7218 24.3402 18.6992 25.4334C16.1086 28.5081 15.5632 32.5393 17.4039 35.614C18.0174 36.2289 18.631 36.9122 19.1764 37.5954C20.1308 38.757 21.2897 39.3036 22.8577 39.3036C25.7891 39.2353 28.7887 39.6453 31.5838 38.4837C32.2655 38.4154 32.9472 38.2104 33.6289 38.552C35.6741 39.8502 39.3309 40.6018 40.7626 42.4466C41.7851 43.6765 41.3761 42.6078 42.0578 44.111C42.6714 45.4092 43.7622 46.639 45.1256 47.5956C46.4891 48.5521 47.9889 49.6454 48.1252 51.7635C48.2615 53.335 46.2408 55.2482 46.1045 56.2047C45.6955 58.4595 42.2882 60.8509 39.9703 60.9876C38.6068 61.0559 37.1752 60.8509 36.0845 60.1676C34.4483 59.0744 32.6077 58.1862 31.2442 56.683C30.0853 55.4531 28.9263 54.2233 28.1083 52.7884C27.6311 51.9685 28.1765 53.8571 27.4266 53.4472C25.9949 52.6956 26.7435 50.6457 25.9936 49.2109C25.7209 48.6643 25.3801 48.186 24.971 47.7078C24.6983 47.2978 24.2893 47.0928 23.8803 47.5027C23.0622 48.3227 22.1078 49.2109 21.2215 49.8258C19.04 51.3973 17.8129 54.0621 14.8133 54.6087C11.3365 55.2919 8.81416 53.4471 8.26878 49.9625C7.92792 47.981 8.9505 46.7512 9.63223 45.3163C10.2458 44.0865 11.2684 43.0616 11.3365 41.4901C11.3365 41.0801 11.9501 40.6701 12.291 40.3285C12.0864 39.6452 11.4729 39.8502 10.9957 39.8502C7.92792 39.9869 4.9965 39.0987 2.13326 38.0738C-0.389124 37.1855 -0.661811 33.8375 1.24702 32.5393C3.36036 31.1045 5.33737 29.6013 7.99609 29.3963C8.67782 29.328 9.35954 28.9864 10.2458 28.7131C9.76857 27.5515 8.81416 27.2099 7.92791 26.8C3.83757 24.8868 1.72422 21.4705 0.565293 17.3026C0.292603 16.3461 0.837979 15.5262 1.45153 14.9112C2.2696 14.0913 3.0195 13.0664 4.04209 12.4515C7.45071 11.4266 10.723 12.5881 13.9953 13.2714C14.677 13.408 15.3587 14.2962 15.9723 13.7496C16.7222 13.0664 15.9041 12.2465 15.6996 11.5632C15.2905 11.1533 15.3587 10.265 15.0179 9.51344Z" fill="#E7D000"/>
<path d="M15.8817 11.4922C16.8602 12.3391 16.7903 13.5708 17 14.7256C16.0215 15.3415 15.043 14.8026 14.4839 14.2637C12.9462 12.801 10.9194 13.9558 9.38172 12.724C8.96236 12.416 8.54301 13.5708 7.91398 13.6478C7.49462 13.1859 8.26344 12.7239 7.7043 12.108C6.58602 12.6469 5.32796 12.416 4 12.493C5.8172 11.4151 7.91398 11.7231 9.80107 11.0302C10.0806 10.9532 10.5 11.0302 10.6398 11.1842C12.0376 12.801 14.0645 12.6469 15.8118 13.3398C16.2312 12.7239 15.7419 12.1081 15.8817 11.4922Z" fill="#E7D000"/>
<path d="M35.7998 28C38.3996 30.2222 38.7329 33.5556 36.5997 36.125C36.0665 36.75 35.3999 37.2361 34.9999 38C34.7333 38 34.4 38 34.1333 38C34.0667 37.9306 34.0667 37.7917 34 37.7222C34 37.6528 34 37.5834 34.0667 37.5139C36.5331 34.875 37.333 31.8889 35.5998 28.4166C35.5998 28.2778 35.7332 28.1389 35.7998 28Z" fill="#E7D000"/>
<path d="M15.0068 10C15.6944 10.5454 15.8472 11.2727 16 12C14.854 11.5758 15.0068 10.7879 15.0068 10Z" fill="#E7D000"/>
<path d="M33.9687 38.5776C33.3359 38.8963 32.7031 39.0876 32 38.9601C32.2812 38.0677 32.9141 37.8128 33.8984 38.1315L33.9687 38.1952C34.0391 38.3227 33.9687 38.4501 33.9687 38.5776Z" fill="#E7D000"/>
<path d="M33.5607 38.078C32.8754 38.2849 32.2586 38.5606 31.7104 38.9742C28.4895 40.6287 25.063 39.7326 21.705 39.9394C20.9512 40.0083 20.1973 39.5947 19.7176 39.0432C18.7582 38.0091 17.5932 37.1128 16.9764 35.8719C15.1261 31.9424 16.0855 28.3576 18.347 24.9796C23.2812 20.016 26.7762 20.0849 32.3957 23.0493C33.1495 23.4629 33.6293 24.2902 33.9034 25.2554C34.246 26.2894 34.4516 27.4614 35.411 28.2197C35.6852 28.8402 35.8907 29.4607 36.2334 30.0811C37.4669 32.2872 37.1928 34.2864 35.5481 36.0788C34.7943 36.7682 34.1775 37.3887 33.5607 38.078Z" fill="#E9E5C5"/>
<path d="M18.9851 25C19.0611 25.4177 18.8331 25.6962 18.6051 26.0443C16.7811 28.8988 16.1731 31.8924 17.4651 35.095C17.5411 35.3735 17.4651 35.7215 17.4651 36C17.2371 35.9304 16.8571 35.9304 16.7811 35.7216C15.1091 32.7975 16.2491 27.2279 18.9851 25Z" fill="#E7D000"/>
</svg>
